<svg xmlns="http://www.w3.org/2000/svg" xmlns:xlink="http://www.w3.org/1999/xlink" width="1000" height="1000"><g><svg xmlns="http://www.w3.org/2000/svg" xmlns:xlink="http://www.w3.org/1999/xlink" width="1000" height="1000"/><svg xmlns="http://www.w3.org/2000/svg" width="1000" height="1000" version="1.0" viewBox="0 0 1000 1000"><g fill="#a9e6f5" transform="matrix(.1 0 0 -.1 0 1000)"><path d="M2194 5972c-126-83-259-170-604-392-85-55-160-104-167-110-7-5-15-10-18-10s-69-42-148-93c-78-52-195-128-259-170-65-43-118-80-118-85 0-4 15-13 32-21 18-8 78-36 133-62s134-63 175-82 116-54 165-77c50-23 117-55 150-70 33-16 109-51 169-80 60-28 117-50 125-47 9 2 88 51 176 109 144 94 437 284 475 308 66 41 328 212 337 220 7 5 15 10 17 10 3 0 73 44 154 98 82 53 181 117 221 142 39 25 71 47 71 50s-33 21-72 39c-40 19-113 53-163 77-49 23-126 58-170 79-44 20-120 56-170 80-49 23-126 59-170 80-44 20-107 50-140 66s-62 29-65 28c-3 0-64-40-136-87zm60-403c100-28 185-81 214-136 51-95-59-203-246-242-89-18-212-10-287 19-143 56-202 123-181 205 14 54 99 115 211 150 51 16 235 19 289 4zm766-341c-85-55-261-170-390-255s-242-158-250-163c-23-14-504-329-515-338-5-4-36-23-67-42-32-19-58-40-58-46 0-15 55-44 81-44 10 0 87 45 171 100s223 145 308 200c307 199 465 301 480 310 79 50 328 212 337 220 7 5 15 10 18 10 15 0 144 94 139 101-6 10-79 49-91 49-4 0-78-46-163-102zm70-119c-41-27-82-54-90-59s-85-55-170-110-162-105-170-110-85-55-170-110-162-105-170-110-85-55-170-110c-195-126-173-112-257-166l-72-45-67 32c-66 31-68 31-98 15-17-9-42-25-56-36-24-18-24-18 85-71 61-28 121-52 135-53 16 0 83 38 185 105 135 89 425 278 475 309 66 41 328 212 337 220 7 5 15 10 17 10 3 0 73 44 154 98 82 53 181 117 221 142 39 25 71 48 71 51 0 9-81 49-98 48-10 0-51-23-92-50zM885 4958c-44-28-132-84-195-125-63-40-122-78-130-83-12-8-88-56-280-180-184-118-265-173-267-178-2-4 19-17 45-29 90-42 257-120 335-157 103-48 203-95 312-145 50-23 126-60 170-81 80-39 80-39 115-16 37 24 224 144 463 298 78 50 199 129 269 175 71 45 130 83 133 83s42 24 88 53c45 30 120 78 167 107 120 75 303 193 313 201 9 7-71 59-90 59-10 0-100-57-345-216-54-35-101-64-104-64s-18-9-34-20c-27-19-27-19-76 4-27 13-71 34-99 46-103 46-157 71-227 104-40 18-99 46-130 60-32 14-84 38-115 52-32 14-89 41-128 59-108 50-101 50-190-7zm296-315c32-16 59-30 59-33s-26-21-57-40c-50-29-200-126-212-137-7-5 30-30 81-55 26-13 48-26 48-30 0-9-135-35-300-59-47-6-100-15-119-20-53-13-54-9-31 81 5 19 17 66 26 104 8 38 20 80 25 93 9 24 9 24 56-3 27-14 52-30 58-35 16-16 34-10 103 34 135 88 197 127 200 127 2 0 30-12 63-27zm4799 287c-42-42-13-110 45-110 45 0 70 35 61 84-9 48-69 63-106 26zm300-97c-1-69-14-90-66-101-35-7-39-11-39-37 0-28 3-30 45-35l45-5 5-252c5-251 5-251 29-272 32-28 53-33 136-29 70 3 70 3 73 41l3 37h-69c-55 0-71 3-76 16-12 31-7 439 6 452 7 7 39 12 76 12 63 0 63 0 60 33-3 32-3 32-73 37l-70 5-2 65c-1 36-2 71-2 78-1 7-16 12-41 12-40 0-40 0-40-57zm3497 50c-2-4-8-33-11-63-9-71-14-78-61-88-35-7-40-11-43-39-3-31-2-32 45-35l48-3 3-247c2-247 2-247 33-277 29-30 34-31 120-31h89v80h-139l-3 226c-2 124 1 232 5 240 6 10 27 14 72 14 65 0 65 0 65 35s0 35-70 35c-49 0-70 4-71 13 0 6-1 41-2 77-2 65-2 65-39 68-20 2-38-1-41-5zm-2645-156c-18-5-52-27-75-47-42-38-42-38-42-110s0-72 41-109c40-35 95-56 243-92 132-33 164-148 54-194-45-19-146-19-181-1-36 19-67 55-79 91-8 26-15 30-51 33-39 3-42 1-42-23 0-37 22-75 67-115 50-45 67-54 131-70 43-11 66-12 127-1 41 7 87 19 103 26 68 34 101 106 82 177-15 53-29 74-72 102-36 24-36 25-177 62-115 30-161 61-161 107 1 61 55 97 148 97 96 0 172-46 172-105 0-35 55-48 83-20 12 11 13 23 5 54-25 97-120 152-263 150-44-1-95-6-113-12zm-3345-3c-4-4-7-146-7-316v-309l48 3 47 3 5 190c4 159 8 196 24 228 31 62 100 97 194 97 43 0 43 0 40 53l-3 52-57-3c-36-1-72-10-95-23-41-23-83-67-83-86 0-7-4-13-8-13-5 0-13 28-18 63-9 62-9 62-44 65-20 2-39 0-43-4zm653-3c-60-14-85-28-132-73-62-61-88-132-88-243 0-46 5-97 11-112 30-74 40-91 73-125 43-46 74-62 149-79 64-14 145-4 204 26 40 20 95 74 112 111 7 16 17 37 22 46 14 27 12 28-39 28-43 0-50-3-63-27-38-74-112-110-206-100-91 9-154 75-168 175l-7 52 244 2 243 3 3 29c2 16-6 59-18 97-25 76-86 149-147 174-43 18-147 26-193 16zm153-92c50-27 86-78 103-144 6-25 6-25-185-25-180 0-191 1-191 19 0 48 49 119 105 149 26 15 140 15 168 1zm332 89c-3-7-4-148-3-313l3-300 48-3 47-3v176c0 237 21 309 102 349 67 34 150 9 185-56 14-28 18-69 23-248l5-215 43-3 42-3v155c0 245 26 328 117 375 28 14 88 14 116-1 70-37 87-104 87-342v-186h44c31 0 46 5 50 16 10 26 7 275-5 365-24 189-102 263-254 242-49-6-118-58-144-107-18-34-26-33-41 4-7 17-28 46-46 64-49 49-139 58-214 23-31-15-77-62-85-88-12-37-24-18-27 44s-3 62-46 65c-28 2-44-1-47-10zm1062 6c-4-4-7-146-7-316v-309l48 3 47 3v620l-40 3c-23 2-44 0-48-4zm1853-3c-124-28-205-123-230-267-32-180 70-331 245-362 139-26 280 45 330 165 24 57 21 65-27 61-38-3-44-7-63-42-11-23-39-51-64-68-38-24-55-28-113-28-136 0-218 84-218 223 0 136 93 237 220 237 80 0 140-34 177-100 17-30 25-35 61-38 50-4 52 6 21 72-23 50-69 95-126 124-44 23-159 35-213 23zm685 0c-141-25-225-144-225-316 0-135 59-246 152-288 100-46 236-40 313 12 49 33 101 100 115 149 41 134 13 285-68 367-25 25-59 52-77 59-40 17-157 27-210 17zm208-124c49-49 67-100 67-188 0-87-18-137-65-185-33-32-51-42-88-47-79-11-133 2-178 42-51 45-69 94-69 194 0 92 24 152 79 197 33 28 41 30 124 30 88 0 88 0 130-43zm294 126c-12-11-8-427 4-464 36-110 73-146 173-169 85-19 200 28 243 100 24 41 33 38 33-13 0-59 17-79 60-75l35 3v620l-39 3c-21 2-43-1-49-7s-9-69-8-158c3-197-17-290-71-339-38-35-64-44-129-44-51 0-68 4-96 26-57 43-63 72-63 304 0 180-2 209-16 214-21 8-69 8-77-1z"/></g></svg><svg xmlns="http://www.w3.org/2000/svg" width="1000" height="1000" version="1.0" viewBox="0 0 1000 1000"><g fill="#52d1ed" transform="matrix(.1 0 0 -.1 0 1000)"><path d="M2178 5962c-80-53-217-143-305-199-87-57-223-146-303-198-80-53-152-99-160-102-8-4-78-48-155-98-77-51-193-126-257-168-105-69-137-97-109-97 5 0 69-29 143-64 73-35 158-75 188-89 30-13 105-48 165-77 61-28 133-62 160-75 28-13 98-46 158-74 59-28 113-51 120-51 6 1 80 45 162 100 83 55 177 116 210 137 33 20 134 85 225 144 469 305 785 510 828 534 17 11 32 22 32 25 0 4-24 17-52 30-29 13-102 47-163 76l-165 77c-30 14-100 46-155 72s-163 76-240 112-144 69-149 74c-6 5-15 9-20 8-6 0-77-44-158-97zm72-394c195-46 282-164 195-265-136-159-516-161-659-3-143 159 168 338 464 268zm775-337c-82-54-303-198-490-321-187-122-414-271-505-331s-193-126-227-146c-35-20-63-43-63-49 0-14 54-44 79-44 9 0 72 37 141 81 69 45 226 147 350 227 218 140 298 192 650 420 91 59 200 129 242 156 43 26 75 52 72 57-6 10-79 49-91 49-4 0-75-45-158-99zm5-161c-74-49-210-138-302-197s-238-154-325-210-223-144-302-195-173-112-209-135c-35-24-68-43-73-43s-38 14-73 32l-64 31-51-32c-28-18-51-35-51-37 0-5 199-99 228-108 14-5 159 84 503 307 857 554 941 608 955 614 8 3 14 8 14 12 0 9-83 51-100 50-8 0-76-41-150-89zM880 4955c-47-30-147-94-222-142-75-49-199-128-275-177s-187-121-248-159c-60-39-114-74-119-79-7-6 330-178 348-178 2 0 64-28 137-63 74-35 172-81 219-103 47-21 119-56 159-76l75-37 50 33c84 55 506 326 576 369 36 22 103 66 150 97s220 141 385 245c165 103 304 192 308 196 13 10-80 62-99 55-15-6-71-41-337-213-54-35-100-63-103-63s-17-9-32-20c-28-21-28-21-122 23-52 25-122 57-155 72-114 52-170 78-263 121-52 24-95 44-97 44s-50 22-107 49c-57 26-113 51-123 54-14 5-46-11-105-48zm305-312c30-15 55-30 55-34s-26-22-57-40c-47-26-195-121-212-136-7-5 28-28 87-58 52-26 60-45 20-45-22 0-313-45-392-61-27-5-51-7-53-5-8 8 69 306 79 306 5 0 34-16 64-35s58-35 63-35c9 0 239 144 256 161 14 14 30 11 90-18zm4801 294c-19-14-25-82-9-98 17-17 68-21 86-7 26 20 27 86 2 104-24 18-56 18-79 1zm294-104c0-72-14-94-66-102-35-6-39-9-39-36 0-29 2-30 47-33l47-3 3-247c3-275 6-285 68-302 43-12 140-13 158-1 8 5 12 21 10 37-3 28-5 29-73 34l-70 5-3 215c-1 118 0 225 3 238 5 20 11 22 75 22 70 0 70 0 70 30 0 31-12 36-105 42-40 3-40 3-45 78s-5 75-42 78c-38 3-38 3-38-55zm3497 50c-4-3-7-25-8-47-2-75-10-90-59-102-40-9-45-14-48-42-3-32-3-32 47-32h51v-235c0-267 5-294 60-314 18-6 66-11 106-11h74v40c0 39 0 39-72 42l-73 3v470l73 3c72 3 72 3 72 37s0 34-72 37l-73 3-3 78c-3 77-3 77-36 77-18 0-36-3-39-7zm-2642-155c-79-28-125-87-125-161 0-91 66-142 242-186 131-34 168-59 168-116 0-67-58-105-161-105-94 0-139 30-169 113-8 23-15 27-50 27-37 0-40-2-40-28 0-39 51-107 105-141 72-46 125-56 213-42 99 15 153 47 182 106 20 41 21 50 10 94-13 55-54 101-110 125-20 8-76 24-125 36-134 32-175 60-175 117 0 61 52 93 152 93s168-45 168-110c0-11 3-20 8-21 4 0 19-3 34-5 42-7 58 17 45 67-14 58-68 110-138 132-62 19-186 22-234 5zm-3350-11c-3-7-4-147-3-312 3-281 4-300 21-303 10-2 29-1 41 2 23 6 23 8 28 188 4 158 8 189 26 223 37 73 93 104 190 105h53l-3 53-3 52-52-2c-29-1-67-10-85-19-41-20-98-74-98-91 0-7-7-13-15-13-11 0-15 12-15 49 0 27-3 56-6 65-7 19-72 22-79 3zm655 4c-61-14-85-28-133-75-61-62-87-132-87-236 0-111 27-179 95-247 62-60 108-77 205-76 111 1 210 59 251 148 27 59 25 65-25 65-35 0-46-4-51-19-10-33-46-71-86-91-45-24-134-27-182-6-64 26-117 111-117 188 0 28 0 28 243 30l242 3-2 52c-4 103-78 211-169 249-43 18-138 26-184 15zm162-97c32-16 65-57 84-103 26-63 33-61-181-61-130 0-195 4-195 11 0 23 40 96 68 122 57 55 151 68 224 31zm322 92c-3-9-3-41 0-73s5-167 6-300c0-243 0-243 28-243 52 0 56 9 53 132-4 226 24 335 98 385 66 44 160 21 198-49 15-28 18-64 21-243 2-115 8-212 13-215s25-4 44-2l35 4v148c0 241 26 322 117 369 33 17 94 13 129-8 59-36 68-72 74-306 5-230-1-211 65-207 25 2 25 2 25 195 0 211-11 278-55 345-37 56-78 76-155 76-90 0-140-31-196-118l-18-29-17 39c-35 81-115 123-203 108-54-9-100-41-132-92-15-23-30-40-33-36-3 3-8 33-11 67-5 62-5 62-43 65-26 2-39-1-43-12zm1063 8c-4-4-7-146-7-316 0-308 0-308 23-308 12 0 32 3 45 6 22 6 22 6 20 313l-3 306-35 3c-20 2-39 0-43-4zm1852-3c-43-9-116-50-146-83-38-41-71-115-83-187-20-117 17-223 103-296 101-86 293-87 393-1 44 38 99 129 90 151-3 9-19 15-40 15-30 0-38-5-52-32-38-76-98-110-189-110-134 0-215 88-215 231 1 134 91 231 215 231 91 0 146-33 191-115 8-14 24-21 53-23 51-4 53 11 12 84-31 53-79 96-135 119-42 18-149 26-197 16zm685 0c-141-24-231-161-222-336 7-128 58-217 153-268 34-19 56-22 146-22 100 0 108 2 154 30 57 35 109 99 125 153 31 101 23 215-21 303-21 42-89 106-133 124-40 17-149 25-202 16zm195-109c59-47 76-92 76-202 0-109-17-154-77-203-69-55-198-46-262 19-89 91-79 303 18 380 48 38 69 44 145 39 52-4 72-10 100-33zm305 105c-3-9-4-113-2-234 3-215 3-219 31-274 39-81 88-113 182-117 90-5 128 11 190 81 25 27 48 48 50 45 3-2 8-29 12-59 8-54 9-54 43-54h35v620h-80l-6-190c-3-104-9-199-13-210-43-112-90-149-187-148-73 1-113 24-142 83-20 41-22 64-27 255l-5 210-38 3c-26 2-39-1-43-11z"/></g></svg><svg xmlns="http://www.w3.org/2000/svg" width="1000" height="1000" version="1.0" viewBox="0 0 1000 1000"><g fill="#06b8fc" transform="matrix(.1 0 0 -.1 0 1000)"><path d="M2294 6032c-85-57-1062-688-1249-807-193-123-186-105-69-160 54-26 135-65 179-85 44-21 130-61 190-90 61-29 135-63 165-77s111-53 180-85c125-60 125-60 162-39 21 12 180 114 355 228 175 113 485 314 688 445 204 132 371 243 373 247 1 5-174 90-390 191s-427 200-469 221l-75 37-40-26zm-61-457c168-35 282-140 247-225-26-62-115-123-225-155-81-24-247-17-327 14-82 32-148 80-171 124-27 54-12 102 49 156 98 86 267 120 427 86zm812-333c-262-176-1256-823-1280-834-14-6-25-17-25-24 0-13 53-44 76-44 15 0 1454 929 1454 939 0 6-81 52-90 50-3 0-63-40-135-87zm-200-297c-621-402-1007-650-1018-654-5-2-40 11-78 29l-67 33-52-33c-28-18-48-36-43-40 4-4 59-31 121-59l114-51 491 318c271 175 597 385 724 467 128 83 233 153 233 156 0 7-75 49-86 48-5 0-157-96-339-214zm-1920 34c-28-17-101-62-162-102-695-445-743-477-743-486 0-4 100-53 223-111 122-57 332-156 467-220l245-116 60 40c86 57 390 253 455 293 30 19 96 60 145 92 174 112 482 308 643 410 89 56 162 106 162 109 0 4-19 17-43 30l-44 23-252-161c-139-88-255-160-257-160-5 0-316 142-572 261-46 22-85 39-87 39-3 0-175 79-185 85-3 2-28-10-55-26zm258-333c31-15 57-31 57-35 0-7-144-102-242-160-27-16-37-31-19-31 13 0 131-72 131-80 0-4-21-11-47-14-80-11-295-46-346-56-70-14-100-13-94 4 3 8 22 78 42 157 19 78 38 145 40 148 3 2 24-9 48-26 84-60 74-61 199 18 62 39 124 79 138 89 14 11 27 18 30 17 3-2 31-15 63-31zm4803 288c-21-21-21-90 0-98 26-10 69-7 82 6 7 7 12 27 12 44 0 53-60 83-94 48zm297-116c-8-69-9-73-38-82-68-20-73-23-68-50 5-22 11-25 52-28l46-3 5-253c6-306 0-292 136-292 84 0 84 0 84 29 0 32-17 41-87 41-30 0-45 5-52 18-5 10-6 105-3 237l7 220 68 3c67 3 67 3 67 32s-2 30-47 30c-91 0-93 3-93 85 0 76-5 85-50 85-15 0-20-12-27-72zm3494 66c-4-4-7-33-7-65 0-68-16-89-65-89-35 0-47-15-38-49 4-17 13-21 48-21h43l4-251c3-251 3-251 31-275 25-22 37-24 118-24 90 0 90 0 87 33-3 32-3 32-75 35-79 3-77 1-75 72 0 14 0 112 1 218l1 192h75c75 0 75 0 75 30s-1 30-52 30c-96 0-97 1-100 89-3 76-3 76-33 79-17 2-34 0-38-4zm-2639-159c-89-33-134-95-125-171 2-24 12-55 21-69 22-34 96-69 197-95 158-41 189-61 189-126 0-35-5-47-30-68-32-26-87-46-130-46-73 0-152 47-165 97-10 40-24 53-57 53-57 0-45-62 28-135 63-62 114-79 222-73 145 9 213 56 220 156 7 102-49 153-213 193-157 38-215 80-199 144 31 124 324 100 324-26 0-28 2-29 46-29 47 0 47 0 41 40-6 43-43 100-82 126-62 41-214 56-287 29zm-3348-305v-310h80v168c0 187 8 227 52 278 42 48 62 57 143 63 70 6 70 6 73 41 2 19-3 44-11 54-13 18-19 19-70 7-64-14-129-57-152-101-8-16-19-30-24-30-4 0-11 28-15 62-6 64-16 78-53 78-23 0-23 0-23-310zm658 299c-205-30-298-318-166-515 19-27 54-62 82-79 46-28 56-30 145-30s100 2 151 31c57 32 113 98 125 147 7 26 6 27-38 27-40 0-46-3-57-30-17-42-72-87-122-101-122-32-241 52-263 187-6 41-6 42 30 48 20 4 105 6 188 6 84-1 178-1 210-1l57 1v48c0 51-26 117-66 169-54 71-165 108-276 92zm130-84c47-20 79-50 103-97 23-45 24-74 3-82-20-8-338-8-358 0-9 3-16 13-16 20 0 22 45 106 67 126 51 46 135 60 201 33zm352-215v-310h78l4 188c3 151 7 195 21 227 62 139 219 160 279 37 18-39 21-67 26-248l5-204h33c43 0 43 0 46 215 3 170 3 170 34 225 38 66 79 93 142 92 52 0 87-22 117-73 18-31 20-55 23-246l3-213h39c38 0 38 0 45 83 3 45 4 141 2 212-5 154-27 225-83 274-31 28-45 34-106 45-33 7-112-15-145-39-18-15-43-44-55-65-13-22-26-39-30-37-4 1-18 22-30 46-28 55-62 81-120 91-87 17-152-13-200-91-17-27-35-46-39-43-5 3-9 34-9 69 0 67-6 75-56 75-24 0-24 0-24-310zm2925 299c-137-19-235-141-243-304-7-134 43-232 149-290 49-27 63-30 144-30 69 1 100 5 135 21 53 25 113 83 140 138 23 47 14 66-31 66-23 0-32-6-40-27-36-97-174-150-277-107-88 36-131 110-132 220 0 96 34 165 104 208 104 65 258 23 301-81 12-28 19-33 48-33 44 0 47 4 34 46-14 46-69 108-124 140-48 29-139 43-208 33zm1178 4c-20-8-18-380 2-458 36-137 151-202 288-164 37 10 98 61 131 109 14 21 18 23 26 10 5-8 10-36 10-62 0-48 0-48 40-48h40v610h-90v-180c0-210-13-263-80-324-62-56-161-61-226-11-54 41-64 90-64 317 0 189-1 198-19 198-11 0-25 2-33 4-7 3-19 2-25-1zm-3053-309v-305l43 3 42 3 3 303 2 302h-90v-306zm2493 291c-56-24-121-92-142-150-76-204 7-414 181-455 66-16 175-7 225 18 117 61 177 194 154 343-19 122-71 197-166 240-50 23-203 25-252 4zm227-77c37-19 51-34 75-83 26-52 30-70 29-137-1-101-38-180-99-215-80-46-211-24-264 43-66 84-65 253 2 348 46 65 173 86 257 44z"/></g></svg><svg xmlns="http://www.w3.org/2000/svg" width="1000" height="1000" version="1.0" viewBox="0 0 1000 1000"><g fill="#02bbec" transform="matrix(.1 0 0 -.1 0 1000)"><path d="M2294 6032c-85-57-1062-688-1249-807-164-104-172-110-151-118 12-5 15-3 11 6-4 6 2 2 12-10s38-31 63-41c25-11 84-38 133-61 48-22 126-60 175-82 48-23 125-59 172-81s98-46 114-54 37-14 48-14c10 0 18-4 18-10 0-5 12-10 26-10s23-4 19-10 5-10 20-10 24-4 20-10-3-10 2-9c21 4 44-2 39-9-3-5 1-9 9-9s15 4 15 9c0 4 10 8 23 8 18 0 19-2 7-10-13-8-13-10 1-10 9 0 23 8 30 17 12 15 12 16-1 8-8-4-12-4-7 0 4 5 16 9 26 10 9 1 76 40 147 87 186 122 261 168 279 168 8 0 15 4 15 8 0 5 26 22 58 39 77 42 866 553 870 564 2 5 10 9 18 9s14 4 14 9-177 91-392 191c-216 101-427 200-469 221l-75 37-40-26zm-50-458c69-18 151-56 182-85 11-10 24-16 28-12 4 5 7 3 5-2-1-6 6-28 15-49 21-47 15-75-26-121-92-106-301-154-473-110-78 21-171 72-200 109-24 32-51 111-34 101 5-4 9 1 9 9 0 21 54 81 97 107 102 63 270 86 397 53zm-459-844c-3-5-11-10-16-10-6 0-7 5-4 10 3 6 11 10 16 10 6 0 7-4 4-10zm1260 512c-71-48-256-170-410-271s-279-188-277-193c2-6-4-8-12-5-9 4-18 3-20-2-3-4 3-8 12-8 18 0 182 94 193 111 4 5 16 6 28 3s19-1 15 5c-3 5 3 12 15 15 11 3 18 10 14 16s2 8 15 5c13-4 20-2 16 4-3 5 3 12 15 15 11 3 18 10 14 16s2 8 15 5c15-4 22-2 22 8 0 8 7 14 16 14 8 0 13 4 9 9-3 6 4 8 15 6 13-2 20 1 20 11 0 8 6 14 13 14s23 9 36 21c12 11 29 18 37 15s14 1 14 9 6 14 13 12c6-1 11 4 10 11-3 14 23 17 32 3 3-5-2-17-11-25-8-9-11-16-5-16 5 0 13 5 16 11 4 6 14 8 23 4 14-5 14-3-1 13-21 23-22 42-1 42 9 0 12 5 8 12-5 8 0 9 14 6 16-5 22-2 22 10 0 13 3 13 12 4 10-10 6-18-16-37-16-14-24-25-18-25s14 5 17 11c4 6 14 8 22 5 8-4 11-1 8 5-4 6 2 13 14 16s21 10 21 15c0 6 7 7 16 4 8-3 12-2 9 3s4 12 15 16c11 3 20 11 20 16 0 6 9 7 20 4 14-4 20-2 18 7-2 7 4 12 13 10 8-1 25 7 37 18s26 20 31 20 13 9 16 21c4 12 12 18 21 15 8-3 14-2 14 2 0 7-80 53-90 51-3 0-63-39-135-87zm-15-86c0-3-4-8-10-11-5-3-10-1-10 4 0 6 5 11 10 11 6 0 10-2 10-4zm141-9c-7-7-16-12-21-12-8 0-401-250-688-438-62-40-109-77-105-82 5-4 3-5-4-1-14 8-165-88-155-99 4-5 2-5-4-2-14 8-66-27-57-38 5-4 3-5-3-2-14 8-96-47-87-58 5-4 3-5-4-1-7 3-57-23-113-59-55-36-105-65-110-65s-39 14-74 32l-64 31-51-32c-49-32-60-58-20-48 11 3 17 2 14-3-5-7 156-86 185-90 26-4 41 0 36 8-3 5 0 9 7 9 15 0 217 130 234 150 6 8 15 14 20 14 18 1 112 67 105 74-4 5-2 5 4 2 11-6 67 26 59 35-3 2 1 5 8 5 15 0 278 169 272 175-3 3 1 5 8 5 6 0 65 35 130 77 64 42 124 79 132 82 8 4 13 9 10 13-2 4 1 8 8 8 16 0 248 151 265 172 7 9 15 14 18 13 9-6 113 61 108 70-3 4 4 8 15 8 27 0 27 12 0 28-39 25-66 31-78 19zm42-27c18 0-26-28-48-30-36-4-38 0-15 20 13 12 30 18 38 15 7-3 19-5 25-5zm-364-89c-13-11-19-20-14-20 14 0 50 28 43 34-3 3-16-3-29-14zm-39-19c0-5-12-15-27-23-16-8-32-17-38-22-5-4-32-22-60-40-57-36-81-57-66-57 5 0 13 5 16 11 4 6 14 8 22 5 8-4 11-1 8 5-4 6 2 13 14 16s21 10 21 15c0 6 7 7 16 4s12-2 9 5c-4 6 2 13 14 16s21 10 21 15c0 6 7 7 16 4s12-2 9 5c-4 6 2 13 14 16 18 4 31 33 16 33-3 0-5-4-5-8zm-1885-33c-28-17-101-62-162-102-823-527-750-478-723-497 13-8 210-103 439-211 229-107 429-202 445-211 29-15 30-15 152 66 68 45 193 125 278 179s163 107 174 117c46 43 183 131 194 124 7-4 8-3 4 4s-1 12 8 12 16 5 16 10c0 6 10 10 22 10s18 3 15 6c-10 11 42 46 55 38 10-6 10-4 0 8-10 13-10 18-1 24 7 4 9 3 6-3-4-7 3-10 17-9 13 0 24 6 23 11-1 6 6 9 15 9 10-1 16 3 15 10-1 6 6 10 17 9 12-1 15 2 8 9-6 6-19 7-29 3-24-10-53-13-53-5 0 16 32 42 125 100 232 147 296 191 290 200-3 6-31-6-63-26-84-54-92-60-86-66 3-3-3-5-13-4-10 0-17-5-15-12 1-7-5-12-15-10-11 2-17-2-15-11 2-8-3-11-12-8-9 4-19-1-24-9-5-9-12-15-15-15-20 3-28-2-58-31-18-18-29-27-24-19 9 16 2 13-64-32l-44-30-71 33c-39 18-79 33-88 33-9 1-14 5-12 9 4 7-10 10-32 7-4 0-10 4-13 10-4 5-72 40-151 76-80 37-178 82-218 101-41 19-75 34-77 34-3 0-174 79-185 85-3 2-28-10-55-26zm258-333c31-15 57-32 57-36 0-6-146-102-242-159-27-16-37-31-19-31 13 0 131-72 131-80 0-4-21-11-47-14-80-11-295-46-346-56-45-9-97-13-97-7 0 1 9 33 20 72 11 38 17 78 14 89-4 11-2 16 4 12 6-3 15 21 23 59 7 36 16 70 20 76 5 8 26-1 69-30 61-40 80-48 80-33 0 4 12 13 28 20 15 6 74 43 132 81s107 69 110 68 31-15 63-31zm4803 288c-9-8-15-25-15-37 2-21 2-21 6 1 3 15 17 29 36 37 26 12 28 14 10 15-12 0-29-7-37-16zm75-11c7-12 15-20 18-17 3 2-3 12-13 22-17 16-18 16-5-5zm-3704-8c3-8 11-15 19-15s14-4 14-10c0-5 7-10 15-10 26 0 16 16-20 33-28 14-33 14-28 2zm3926-97c-8-69-9-73-38-82-65-19-74-24-69-44 4-14 12-17 36-14 23 4 29 1 23-8-5-8-3-11 6-8 8 3 14 13 14 23s6 20 13 23c6 2 10 8 6 13-3 5 2 9 10 9 9 0 16 5 16 10 0 6 5 10 11 10 5 0 8-4 4-10-3-5 6-17 20-26 20-13 35-15 72-8 35 6 41 9 23 11-44 7-90 24-90 34 0 6 5 7 11 4 14-9 9 117-6 127-5 4-20 8-32 8-19 0-22-7-30-72zm3494 65c-3-5-7-40-8-79-2-41-8-71-14-71-83 1-99-9-88-53 5-20 11-22 53-18 71 7 103-21 66-58-13-12-15-12-19 4-3 9-5-3-5-28s3-36 5-25c3 11 14 26 25 33 15 11 18 23 16 55-3 36-6 42-26 43-12 1-26 4-30 8-9 9 19 26 32 19 5-3 6-1 2 5-10 17 9 15 24-3 7-8 16-13 20-10 5 3 11 1 14-4s21-5 41-1c19 4 37 4 40 0 3-5-12-10-32-12-66-5-41-23 36-26 72-3 73-3 67 20-3 13-6 26-6 31 0 4-22 7-49 7-26 0-62 5-79 11-29 10-31 12-34 80-3 63 3 84 15 59 3-6 4-5 3 2-3 15-61 24-69 11zm-3710-22c-4-17-3-21 5-13 5 5 8 16 6 23-3 8-7 3-11-10zm-96-7c0-11 3-14 6-6 3 7 2 16-1 19-3 4-6-2-5-13zm-3405-9c-11-8-15-15-9-15 7 0 15 5 18 11 4 6 14 8 22 5s11-1 8 4c-8 13-16 12-39-5zm-266-9c0-2 7-7 16-10 8-3 12-2 9 4-6 10-25 14-25 6zm7542-26c0-14 2-19 5-12 2 6 2 18 0 25-3 6-5 1-5-13zm-1-46c0-11 3-14 6-6 3 7 2 16-1 19-3 4-6-2-5-13zm-7408-19c0-8 4-12 9-9s6 10 3 15c-9 13-12 11-12-6zm-280-20c0-8 4-12 9-9s6 10 3 15c-9 13-12 11-12-6zm4985 0c-20-7-50-24-67-36-33-24-65-82-57-102 2-7 5-4 5 6 1 9 5 17 10 17 15 0 23-38 12-58-5-10-9-32-7-48 5-48 66-81 234-125 45-12 97-31 115-43 27-18 32-29 35-68 3-40 0-48-28-71-32-27-87-47-130-47-73 0-152 47-165 97-10 40-24 53-55 53-38 0-42-8-20-50 11-21 17-40 14-43-10-10 80-87 122-103 57-22 203-15 254 11 55 27 91 66 84 88-3 11-2 17 2 14 5-3 10 16 12 42 5 92-56 144-213 182s-215 80-199 144c31 124 324 100 324-26 0-24 4-29 25-29 17 0 29 8 37 25 9 19 14 22 21 13 5-8 6-2 2 17-8 35-46 89-80 111-62 41-214 56-287 29zm-3348-10c0-8 8-15 18-15s19-6 20-12c1-7 5-29 10-48 10-35 10-35 11-5 1 50-9 75-33 76-19 1-19 2 4 9 25 8 25 8-2 9-19 1-28-4-28-14zm243 1c-22-8-55-23-73-36-35-25-80-91-80-117 0-14 3-13 24 6 13 12 27 21 32 20s25 5 44 14c20 8 64 19 98 23 60 6 62 7 62 36 0 66-26 79-107 54zm464 1c4-6-10-8-34-5-101 14-215-100-237-237-5-31-4-36 4-22 6 9 15 15 21 12 5-4 9 2 9 12 1 13 4 11 13-8 10-21 16-24 37-18 14 4 19 7 13 8-7 1-13 9-14 19 0 14-2 14-9-3-7-16-9-17-9-3-1 9 5 21 13 25 7 4 23 27 34 50 49 95 162 129 262 79 41-20 46-20 29 1-13 15-12 15 8 3 22-14 37-44 33-69-1-7 3-10 9-6 11 6 15-7 12-32-1-7 2-13 7-13 19 0-1-50-22-55-51-11-58-14-21-9 22 2 50 4 63 4s20 5 17 10c-3 6-2 10 3 10s12 10 15 21c4 14 11 20 21 16 21-8 3 41-38 101-41 62-108 102-185 111-37 5-58 4-54-2zm21-24c-10-2-26-2-35 0-10 3-2 5 17 5s27-2 18-5zm412 25c0-17 20-47 20-31 0 6 10 14 23 16 18 3 16 5-8 6-26 2-27 3-10 11 19 8 19 9-2 9-13 1-23-5-23-11zm265 2c-4-6-14-8-23-6-28 9-80-30-117-88-19-30-35-58-35-61 0-14 17-2 33 23 9 15 26 38 38 52 19 23 20 23 16 4-4-21-3-21 39-8 49 15 98 5 131-25 11-11 24-17 27-14 3 4 6-3 6-15s3-22 8-22c4 0 9-21 10-48 2-26 7-92 12-147l7-100 3 85c2 66 4 77 10 50 4-19 8-29 9-22 0 6 7 12 15 12 9 0 16 18 21 53 6 42 9 48 16 32 7-15 8-12 4 14-6 40 12 114 25 106 6-4 10 1 10 11 0 14 2 15 18 3 9-7 13-9 9-4s16 16 47 26c59 19 114 13 145-15 10-9 23-16 30-16s9-5 5-11c-3-6-2-14 5-18 6-4 15-45 20-91 5-53 9-69 10-42s5 41 13 40c7-2 20 12 29 29 9 18 19 30 23 26 3-3 6-1 6 5 0 7-5 12-11 12-5 0-8 4-4 10 8 13-21 80-48 108-12 13-33 30-47 37-33 16-98 26-105 15-3-4-20-8-39-7-42 1-97-39-128-93-13-22-26-40-30-40s-15 17-23 37c-19 44-41 71-75 88-36 18-108 27-115 15zm393-27c-10-2-18-9-18-14s-10-9-22-9c-23 1-23 1 2 15 14 8 32 14 40 13 10 0 10-2-2-5zm-418-13c0-5-10-10-22-10-19 0-20 2-8 10 19 13 30 13 30 0zm2727 37c3-6-11-7-33-5-28 4-52-1-85-18-105-53-160-146-167-284-3-57-1-82 6-75 6 6 12 19 15 30s4-8 3-42c0-33 2-59 5-57 10 6 20-26 12-38-3-7-1-8 5-4 8 5 12 0 12-13 0-22 44-62 104-94 33-17 58-21 131-21 105 0 160 19 214 77 38 39 82 105 64 94s-25 9-8 23c21 17 9 30-26 30-23 0-32-6-40-27-48-128-239-163-342-65-46 44-60 81-66 174-3 47-4 85-3 83 2-2 16 20 31 48 38 74 100 111 184 111 63-1 129-25 156-58 7-9 18-13 24-9 5 3 8 2 4-3-7-12 19-74 33-74 5 0 10 5 10 11 0 5 3 8 8 6 4-2 14 4 24 14 14 15 15 20 1 46-39 77-125 133-218 142-38 4-61 3-58-2zm-37-32c-7-8-17-12-22-9-6 4-5 10 3 15 22 14 33 10 19-6zm-224-231c-4-9-9-15-11-12-3 3-3 13 1 22s9 15 11 12c3-3 3-13-1-22zm1404 265c0-5-4-7-10-4-7 4-9-44-8-137 1-79 3-118 5-88s8 59 14 65c5 5 9 21 9 36s6 30 13 32c9 4 9 8-2 15-12 9-12 13 2 27 21 20 21 32 3 51-17 17-26 18-26 3zm-3-71c-3-7-5-2-5 12s2 19 5 13c2-7 2-19 0-25zm-3056 45c1-28 1-28 9-3 5 17 8 19 9 8 1-23 31-24 31-2 0 11 6 15 20 11 11-3 20-1 20 4s-20 9-45 9c-43 0-45-1-44-27zm2488 10c-52-22-117-92-139-149-30-82-26-136 8-102 9 9 12 5 13-17 1-17 3-46 4-65 2-19-1-40-7-47-15-19-16-72-1-77 7-3 10-12 6-22-4-12-3-15 5-10s12 0 12-13c0-29 67-79 130-98 66-19 181-13 231 12 45 23 100 76 92 88-3 6-1 7 5 3 6-3 16 3 22 14 8 14 8 20 0 20-6 0-8 5-3 13 4 6 8 48 9 92s7 104 13 133c10 48 9 58-14 101-25 50-64 89-119 119-37 20-222 24-267 5zm163-12c-8-4-31-6-52-4-21 3-49-1-62-8-21-11-22-11-9 4 10 13 30 17 75 17 37 0 56-4 48-9zm71-64c25-13 44-20 41-15-13 21 6 5 21-18 9-15 12-23 6-20-7 5-9 1-5-8 3-9 10-13 16-10 5 3 8 0 7-7-2-8 3-40 11-72 26-111-21-247-100-287-105-54-262-1-286 97-4 12-9 21-13 19-3-2-7 31-9 73-4 82 14 153 51 205 46 66 173 86 260 43zm-326-229c-2-13-4-5-4 17-1 22 1 32 4 23 2-10 2-28 0-40zm1105 297c0-16 2-22 5-12 2 9 2 23 0 30-3 6-5-1-5-18zm18 11c0-23 16-27 17-5 1 10-2 19-8 19-5 0-9-6-9-14zm-4522-46c2-16 6-30 8-30s4 14 4 30c0 17-4 30-8 30-5 0-7-13-4-30zm1392 18c0-13 7-18 28-17s22 2 7 6c-11 3-23 10-27 17-5 7-8 5-8-6zm100 4c0-6-10-13-22-15-13-2-6-5 17-5 22-1 36 2 30 6-5 4-13 11-17 16-5 5-8 5-8-2zm-194-17c-3-9-2-13 4-10 5 3 18 1 28-4 14-8 19-6 19 5 0 7-4 14-8 14s-14 3-22 6-17-2-21-11zm-2413-35c0-25 2-35 4-22 2 12 2 32 0 45-2 12-4 2-4-23zm1139 20c0-14 2-19 5-12 2 6 2 18 0 25-3 6-5 1-5-13zm4101-35c0-33 2-45 4-27s2 45 0 60-4 0-4-33zm-5310-10c0-33 2-45 4-27s2 45 0 60-4 0-4-33zm1139-160c1-158 3-199 8-145 11 114 11 333 0 350-6 10-9-60-8-205zm69 159c0-11 3-14 6-6 3 7 2 16-1 19-3 4-6-2-5-13zm-2966-24c-3-6 1-7 9-4 18 7 21 14 7 14-6 0-13-4-16-10zm4318-30c0-25 2-35 4-22 2 12 2 32 0 45-2 12-4 2-4-23zm-4408-29c-3-5-2-12 3-15s9 1 9 9c0 17-3 19-12 6zm6235-1c0-5 5-10 11-10 5 0 7 5 4 10-3 6-8 10-11 10-2 0-4-4-4-10zm-6269-27c-6-10-11-14-11-10s-9 3-20-3-18-15-15-20c3-6 0-8-7-5s-24-4-38-15c-21-16-22-20-7-20 22 0 111 60 115 78 3 17-5 15-17-5zm62-48c0-8 4-12 9-9s6 10 3 15c-9 13-12 11-12-6zm-35-12c10-4 9-9-5-20-17-13-16-13 5-3 22 11 22 31-1 29-8 0-8-2 1-6zm3475-43c0-30 2-43 4-27 2 15 2 39 0 55-2 15-4 2-4-28zm3687-10c-1-44-4-50-10-30-5 16-8 19-9 8s-6-15-16-12c-10 4-15 0-15-15 0-12-4-21-10-21-15 0-12-39 5-56 8-8 12-21 9-28s2-16 10-19c10-4 13-13 9-23-4-11-2-15 4-11s17-1 24-10c12-14 12-16-1-8s-13 6-2-8c23-28 96-57 145-57 54 0 130 27 120 43-4 6 0 8 9 4 14-5 58 29 56 43-2 13 14 50 23 50 5 0 9 6 9 14s6 17 13 19c9 4 9 6 0 6-9 1-10 8-3 27 6 14 10 33 10 42-1 9-10-5-20-32-38-97-109-144-202-133-94 12-136 65-148 192-7 70-7 70-10 15zm320-203c0-2-10-12-21-23-22-19-22-19-8 4 12 19 29 30 29 19zm-4947 236c9-2 25-2 35 0 9 3 1 5-18 5s-27-2-17-5zm-2597-25c4-6 1-9-7-6-17 6-69-18-69-32 0-18 29-11 70 16 22 15 40 27 40 28s-9 2-20 3c-12 1-18-3-14-9zm2391-25c-9-47-7-103 3-103 6 0 10-9 10-19 0-11 5-23 10-26 6-4 9-14 8-22-4-22 73-80 125-94 23-6 74-9 113-7 84 6 161 43 203 98 14 19 20 31 14 26-9-5-11-2-7 8 3 9 10 14 14 11 5-3 12 0 16 6 4 8 3 9-4 5-8-5-12 0-12 13 0 24 16 36 23 19 3-8 6-6 6 5 1 14-7 17-43 17-39 0-45-3-56-30-7-17-28-43-46-60-94-82-246-54-307 58-15 27-27 60-27 73 0 19-2 21-10 9-8-13-10-12-11 5-1 11-1 23 0 28 0 4-3 7-8 7s-12-12-14-27zm10-25c-3-8-6-5-6 6-1 11 2 17 5 13 3-3 4-12 1-19zm461-70c-3-13-23-38-31-38-3 0 0 11 6 25 12 26 29 34 25 13zm4754-108c0-14 2-19 5-12 2 6 2 18 0 25-3 6-5 1-5-13zm373 10c3-5 12-10 19-10 8 0 19-7 26-15 10-12 6-16-22-24-29-8-24-9 40-10 73-1 73-1 70 32-3 32-3 32-71 35-46 2-67-1-62-8z"/></g></svg><svg xmlns="http://www.w3.org/2000/svg" width="1000" height="1000" version="1.0" viewBox="0 0 1000 1000"><g fill="#01b4dd" transform="matrix(.1 0 0 -.1 0 1000)"><path d="M2321 6041c-6-9-9-10-5-2s-5 5-22-7c-36-25-316-207-441-286-51-32-93-63-93-67 0-5-4-8-8-7-4 2-137-80-295-182s-338-217-400-257c-61-40-111-77-110-82 2-6-5-7-15-4-15 6-15 4 2-15 10-12 23-19 27-16 14 9 10-3-7-20-14-15-12-18 23-32 35-15 194-89 218-102 7-3 7-1 0 5-5 6-31 22-57 35-26 14-45 28-41 32 3 3-1 6-10 6-11 0-14 5-10 16 4 12 0 14-23 8-16-4-26-3-22 1 4 5 3 14-2 20-11 14 142-35 191-60 16-9 35-13 41-9s8 3 5-3c-8-13 20-26 35-16 7 3 8 1 4-5-4-7-1-13 6-14 7 0 18-2 24-2 6-1 19-9 28-19 20-20 30-22 20-4-4 6 5 1 20-13s28-23 29-20c1 2 67-28 147-67s163-76 185-82c44-11 105-11 105 2 0 4 5 7 11 7 14 0 102 60 112 77 5 7 12 11 18 8 5-4 9-1 9 4 0 6 7 11 15 11s15 4 15 9c0 8 64 52 80 56 3 1 33 15 68 32 34 17 59 27 56 22-3-6 17 2 46 16s49 21 45 14c-9-13 72 28 93 48 6 6 21 15 32 18s20 10 20 14c0 5 14 14 30 21 17 7 30 16 30 21s6 9 13 9 22 8 33 18c10 9 31 23 47 31 15 8 27 18 27 23 0 4 7 8 15 8 9 0 25 9 37 20s28 20 35 20 13 4 13 9 14 14 30 21c17 7 30 16 30 20s14 13 30 20c17 7 30 16 30 20s8 10 18 13c22 7 71 37 96 60 11 9 24 17 28 17 5 0 14 5 21 10 7 6 41 29 77 51 79 50 70 42 75 69 3 18 1 21-15 17-11-3-18-1-15 3 3 5-11 17-30 26-26 12-33 19-23 25 8 6 14 3 16-7 3-11 12-15 27-12 16 4 22 1 18-9-4-9 5-13 29-13 19 0 39-5 46-12 9-9 12-9 12-1 0 11-37 29-52 25-5-1-8 2-8 7 0 4-32 23-71 40-60 27-74 30-87 19-15-11-15-11-4 3 10 14 10 18-4 23-9 3-21 3-26-1-6-3-9-2-5 3 3 5-76 47-176 93-100 47-254 119-343 161-143 68-162 75-173 61zm779-361c0-5-5-10-11-10-5 0-7 5-4 10 3 6 8 10 11 10 2 0 4-4 4-10zm-883-60c98-11 201-43 210-66 3-8 9-12 13-9 4 2 15-4 25-15 10-12 13-20 7-20-7 0-12 5-12 10 0 6-8 10-17 10-11 0-14-3-8-8 23-16 47-66 51-107 6-53-11-90-63-135-21-19-37-38-35-42 1-5-3-8-10-7-26 3-39-1-33-11 4-6-7-10-27-10-25 0-29-3-18-10 12-8 10-10-10-11-14-1-36 0-49 1s-21-2-18-7c3-4-49-8-115-8-66-1-112 2-102 5 13 5 6 9-22 13-92 15-234 109-234 156 0 7-5 9-12 5-7-5-9-2-5 9 3 9 1 17-5 19-7 3-9 12-4 23 6 17 9 17 17 5 9-12 10-12 5 3-6 19 68 107 91 107 7 0 13 5 13 10 0 6 8 10 18 10s22 3 26 8c4 4 28 15 54 24 44 15 45 17 17 18-30 1-30 1 8 18 47 21 124 25 244 12zm-510-202c-3-8-6-5-6 6-1 11 2 17 5 13 3-3 4-12 1-19zm598-248c-27-12-43-12-25 0 8 5 22 9 30 9 10 0 8-3-5-9zm-192-7c-7-2-21-2-30 0-10 3-4 5 12 5 17 0 24-2 18-5zm-58 436c-25-6-22-7 20-8 28 0 56 3 62 7 16 10-41 11-82 1zm123-6c6-2 18-2 25 0 6 3 1 5-13 5s-19-2-12-5zm82-18c24-8 46-13 48-11 5 5-59 26-77 25-9 0 4-7 29-14zm836-300c-11-8-14-15-8-15 20 0 26 4 28 18 3 15 3 15-20-3zM886 5121c-3-5 1-11 9-14 9-4 12-1 8 9-6 16-10 17-17 5zm2361-2c7-7 15-10 18-7s-2 9-12 12c-14 6-15 5-6-5zm-399-16c7-3 16-2 19 1 4 3-2 6-13 5-11 0-14-3-6-6zm-122-71c-3-5 1-9 9-9s12 4 9 9c-3 4-7 8-9 8s-6-4-9-8zm-1805-55c-69-43-181-114-330-211-68-44-209-135-315-202-105-68-190-128-188-135s-3-9-12-6c-9 4-18 2-22-4-3-6 3-13 15-16 11-3 18-9 15-14s1-9 8-10c7 0 4-4-7-9-19-7-19-8 5-18 14-5 70-31 124-56 103-48 117-49 131-5 4 11 11 17 16 13 5-3 7-9 4-14-3-4 3-7 12-6 10 2 24-3 31-11 8-7 18-11 23-8 5 4 9 2 9-3 0-6 7-13 16-16 11-4 15-2 11 8-4 11 2 12 28 6 39-9 54-2 52 25-2 15 3 19 17 17 14-3 17 1 13 12-4 9-2 16 3 16 6 0 10-7 10-16 0-11 5-14 16-10 13 5 15 2 11-15-4-15-3-19 4-12 6 6 11 26 12 46 1 19 5 33 10 30 12-7 7 31-8 57-14 25-14 25-15-6 0-18-8-39-20-49-20-18-21-18-15 1 4 10 10 28 15 39 7 19 20 75 35 153 7 36 21 42 30 12 3-11 11-20 17-20s9 3 5 6c-3 4 1 13 9 21 13 13 17 13 39-1 14-9 35-23 48-31 16-10 26-11 37-4 13 9 12 10-2 5-15-4-16-3-6 14 12 19 13 19 31-1 18-19 53-19 67 1 10 13 99 70 110 70 7 0 10 7 7 14-4 10-1 13 7 10s17 0 22 7c5 8 3 10-7 4-12-8-12-6 0 8 15 18 26 23 16 7-11-18 18-10 40 10 31 29 65 34 65 9 0-21-16-26-22-7-3 8-6 9-11 1-7-11 70-53 98-53 32 0-3-32-106-97-57-36-116-73-131-82-28-16-36-31-17-31 5 0 27-11 47-25s46-25 57-25c13 0 21-7 22-18 1-17-18-22-175-46-97-15-196-31-219-37-57-12-97-11-111 3s-17 11-27-21c-6-20-5-23 10-17 15 5 16 4 5-9s-9-15 13-15c14 0 27-4 29-9s10-11 18-13c23-5 42-27 34-40-4-7-4-10 1-6 9 9 40-20 31-30-4-3-11 0-15 7-11 17-47 9-43-9 3-11 0-11-12-1-9 7-13 17-10 22s-2 9-11 9c-10 0-13-5-9-12 5-8 2-9-10-5-11 4-15 3-11-4 4-6 13-8 21-5 7 3 17 0 21-7 5-7 60-36 123-65s122-57 132-62c11-6 18-5 22 6 3 8 0 14-7 13-6-1-21-1-32 0-17 1-18 3-5 12s13 10 0 8c-8-1-24-1-35 0-17 1-18 3-5 12s13 10 0 8c-8-1-26-1-40 1-23 1-23 2-5 10s18 9-5 9c-20 1-22 3-10 11 13 9 13 11 0 20-34 22 6 7 80-30 44-22 86-40 95-40 16 0 20-12 8-24-4-3-7-15-8-26-1-15 1-17 12-9 7 6 10 16 6 23s-2 7 8-1c13-10 35 1 127 62 61 41 116 75 122 75 5 0 10 4 10 8 0 5 12 15 28 23 15 8 36 22 46 32 11 9 24 17 28 17 9 0 156 96 173 113 7 7 3 8-10 3-15-4-11 2 12 23 17 16 29 31 27 34-2 2 16 12 40 22 25 10 43 22 40 27-3 4 1 8 8 8s22 11 33 23c24 29 62 50 75 42 5-3 12 0 16 6 5 8 3 9-6 4-9-6-11-4-6 4 5 7 15 10 23 7s12-2 9 3 6 16 19 25c14 9 23 21 20 26-4 6 6 15 22 21 28 11 28 11-21 35-51 24-81 23-49-2 17-13 17-13-4-14-13 0-23 4-23 9s-13 8-29 6c-21-3-29 0-25 9 3 8-13 17-46 26-27 7-50 17-50 22 0 4-9 8-21 8-13 0-18-4-13-12 4-7 3-8-4-4s-12 14-12 22-4 14-10 14c-5 0-10-5-10-11 0-5-5-7-10-4-8 5-8 11 0 20 9 11 6 13-14 11-14-2-27 3-30 11-4 9-14 11-31 7-18-4-25-3-23 6 2 7-8 13-22 15-51 4-83 22-72 40 3 6-1 4-10-3-14-11-19-9-32 10-11 15-16 17-16 8 0-11-6-9-18 7-22 27-142 85-161 78-9-3-12-3-8 1 10 11-52 46-66 37-8-4-7-1 1 9 14 17 42 14 42-5 0-6 3-8 6-5 3 4 21 0 39-8 25-10 36-11 41-2 4 7 3 8-4 4s-12-2-12 4-4 8-10 5c-5-3-10-2-10 3s-8 12-17 15c-10 3-37 15-59 25-42 20-42 20-93-11zm59-17c0-5-10-10-22-10-19 0-20 2-8 10 19 13 30 13 30 0zm263-290c25-24 3-31-43-14-19 7-30 13-23 13 7 1 10 8 6 17-5 13-2 15 18 9 13-4 32-15 42-25zm402-30c3-6-1-7-9-4-18 7-21 14-7 14 6 0 13-4 16-10zm-619-209c-4-5 0-11 6-14 7-2 11-7 8-10-9-10-33 10-26 22 4 6 9 11 12 11s3-4 0-9zm-719-123c7-6 17-7 23-3 5 3 10 2 10-4 0-5-10-13-21-16-17-6-19-9-8-16 8-5 10-9 4-9-20 0-38 17-26 24 21 13 11 28-14 22-19-5-23-3-19 8 6 15 27 12 51-6zm463-102c0-9-40-13-46-5-3 5 6 9 20 9s26-2 26-4zm1785 714c-66-44-115-80-110-80 6 0 21 9 35 20s29 20 33 20c5 0 15 7 24 15 8 8 20 12 26 8 7-3 9-2 4 2-9 11 73 66 87 58 6-3 8-3 4 2-4 4 0 14 10 21 9 7 15 13 12 14-3 0-59-36-125-80zm-1391-22c30-15 41-17 50-7 8 9 8 10-1 5-7-4-13-3-13 3s-7 7-17 4c-10-4-14-2-10 4s-4 11-20 11c-25 0-25-2 11-20zm1236-8c0-5 5-10 10-10 6 0 10 5 10 10 0 6-4 10-10 10-5 0-10-4-10-10zm-1173-7c-9-15 17-23 34-11 11 8 11 9-3 5-9-3-18-1-21 6-2 8-5 8-10 0zm5064-18c0-16 3-25 7-19 4 7 16 14 27 17 19 4 19 5-2 6-12 0-24 7-26 14-3 6-6-1-6-18zm-4891-65c-9-6-10-10-3-10 6 0 15 5 18 10 8 12 4 12-15 0zm8372-10c0-14 2-19 5-12 2 6 2 18 0 25-3 6-5 1-5-13zm-8330-9c-11-6-10-10 4-15 9-4 22-1 28 5 8 9 8 10-1 5-6-3-13-2-15 4-2 5-9 6-16 1zm45-18c-9-15 17-23 34-11 11 8 11 9-3 5-9-3-18-1-21 6-2 8-5 8-10 0zm44-22c-8-5-3-11 14-19 32-15 45-15 45-2 0 5-7 6-17 3-10-4-14-2-10 4 9 14-16 24-32 14zm4696-8c-15-2-25-8-22-12 6-11 55-1 55 10 0 5-1 8-2 8-2-1-15-4-31-6zm3486 0c-23-2-44-10-47-18-3-9 2-13 15-12 10 1 19 5 19 9s11 8 24 8c14 0 28 5 31 10 3 6 5 9 3 8s-22-3-45-5zm-2389-12c4-6 16-11 27-11 21 0 33-8 85-56 19-18 34-29 34-25 0 3 7-3 15-13 8-11 15-15 15-10 0 16-61 84-88 98-39 20-96 31-88 17zm-2744-6c0-3 22-19 48-35 27-16 67-50 90-75 23-26 42-42 42-37 0 19-59 90-92 110-37 23-88 44-88 37zm710-14c6-12 14-21 19-21 4 0 18-19 31-42 31-57 41-69 51-62 11 6-15 71-39 97-9 11-30 26-45 34-27 14-28 14-17-6zm425-24c25-24 45-49 45-55 0-7 5-12 10-12 6 0 10-8 10-17 0-12 3-14 11-6 20 20-30 92-83 119-43 22-41 17 7-29zm266 27c0-11 3-14 6-6 3 7 2 16-1 19-3 4-6-2-5-13zm74 6c3-5 8-10 11-10 2 0 4 5 4 10 0 6-5 10-11 10-5 0-7-4-4-10zm1024-15c-19-14-34-29-33-33s-6-12-15-19-11-12-4-13c6 0 18 6 25 13s24 21 38 30c14 10 18 17 10 17-9 0-8 5 6 15 10 8 16 15 13 15s-21-11-40-25zm1607 11c3-8 18-19 34-24 30-11 120-92 120-109 0-6 7-14 16-17 26-10-26 73-66 105-46 37-112 65-104 45zm-7071-6c-3-5-1-10 4-10 6 0 11 5 11 10 0 6-2 10-4 10-3 0-8-4-11-10zm6385 3c0-5 17-16 38-25 20-10 61-40 90-67 59-56 68-54 20 3-46 57-149 118-148 89zm457-4c-9-6-15-14-12-20 3-5 0-6-7-4-18 7-83-61-102-106-15-36-15-37 4-32 11 3 20 8 20 12 0 3 10 12 23 20 19 12 20 12 11 0-7-8-15-30-18-49-7-35-7-35 14 8 28 58 32 53 9-13-10-30-18-74-18-97 1-39 2-37 9 18 10 73 43 147 78 174 14 11 22 24 18 28s-17-4-29-18c-12-15-18-18-14-8 3 10 2 20-3 23-6 4-3 16 7 30 10 12 22 20 27 17s6 0 2 6c-3 5 0 13 6 15 7 3 9 6 3 6-5 0-18-4-28-10zm-4505-25c-17-14-37-35-43-47-8-18-5-17 15 6 14 15 29 27 33 27 5 0 14 9 21 20 16 26 14 25-26-6zm413 16c-3-5-1-10 4-10 6 0 11 5 11 10 0 6-2 10-4 10-3 0-8-4-11-10zm724-17c-24-26-24-26 3-7 15 10 28 22 28 27 0 12-5 8-31-20zm-3428 7c-9-5-8-9 5-14 9-4 21-3 26 2 12 12-15 23-31 12zm3819-5c-19-22-8-25 13-3 9 10 13 18 8 18s-14-7-21-15zm-1179-40c-45-49-48-55-26-55 8 0 15 5 15 11 0 7 12 22 28 35 15 13 23 24 18 24s-3 7 4 15c28 34 0 12-39-30zm2954 35c33-4 74-13 90-19 17-7 26-8 20-3-19 17-78 32-124 31-45-2-44-2 14-9zm458-19c-41-37-66-78-57-92 4-7 3-9-3-6-6 4-16-7-22-25-14-40-14-41 3-26 7 7 11 19 9 25-3 8 3 13 16 13 12 0 21 5 21 10 0 6 4 10 10 10s5-9-2-24c-8-20-7-28 6-41 14-15 15-14 11 17-4 23-3 27 3 14 8-18 9-18 15-2 4 10 4 22 1 27s-2 8 3 7c4-2 21 10 36 26 22 22 26 31 16 37-17 10-30 2-23-15 3-8 1-17-5-20-14-9-8 49 7 67 24 28-14 27-45-2zm-6008 10c-3-5 2-11 10-15 8-3 17-1 20 3 3 5-2 11-10 15-8 3-17 1-20-3zm5431-4c-16-7-30-21-32-31-2-16-1-16 14-3 10 9 31 23 47 31 35 19 13 21-29 3zm-2633-4c9-2 25-2 35 0 9 3 1 5-18 5s-27-2-17-5zm1085 0c7-3 16-2 19 1 4 3-2 6-13 5-11 0-14-3-6-6zm2335-3c27-5 62-13 78-19s27-6 25-2c-8 12-89 31-123 30-18-1-11-4 20-9zm604 3c-3-5 29-8 71-8 43 0 86-4 97-8 11-5 9-1-5 7-26 16-155 23-163 9zm-3307-7c0-2 7-7 16-10 8-3 12-2 9 4-6 10-25 14-25 6zm415-6c27-12 43-12 25 0-8 5-22 9-30 9-10 0-8-3 5-9zm2195 0c-9-6-10-10-3-10 6 0 15 5 18 10 8 12 4 12-15 0zm615 0c3-5 8-10 11-10 2 0 4 5 4 10 0 6-5 10-11 10-5 0-7-4-4-10zm-4089-51c-16-19-30-27-38-23-10 6-10 5-1-7 8-9 9-20 3-29-6-8-10-19-9-25 0-5 9 8 21 30 11 22 30 50 41 63 11 12 18 22 15 22-4 0-18-14-32-31zm1061-2c-17-32-17-32 3-8 17 20 26 41 18 41-2 0-11-15-21-33zm2023 11c0-10-4-18-10-18-5 0-10-11-10-25 0-15 6-25 14-25 17 0 28 49 15 70-7 13-8 12-9-2zm-360-23c-12-31 16-106 37-98 7 3 13 0 13-6s9-11 19-11c29 0 175-36 200-49 11-7 21-9 21-6 0 20 121-85 133-116 4-11 6-10 6 2 2 27-43 83-84 106-22 12-71 30-110 39-99 24-156 43-186 65-14 10-28 16-31 14-2-2-3 16-3 40 2 51-1 56-15 20zm-2830-15c0-5 5-10 10-10 6 0 10 5 10 10 0 6-4 10-10 10-5 0-10-4-10-10zm1481-36c0-11 3-14 6-6 3 7 2 16-1 19-3 4-6-2-5-13zm2380 0c0-11 3-14 6-6 3 7 2 16-1 19-3 4-6-2-5-13zm-7471-27c0-23 4-36 10-32 13 8 13 35 0 55-7 11-10 5-10-23zm8151 17c0-11 3-14 6-6 3 7 2 16-1 19-3 4-6-2-5-13zm-7956-4c3-5 8-10 11-10 2 0 4 5 4 10 0 6-5 10-11 10-5 0-7-4-4-10zm3396-6c0-11 3-14 6-6 3 7 2 16-1 19-3 4-6-2-5-13zm1101-9c0-16 2-22 5-12 2 9 2 23 0 30-3 6-5-1-5-18zm2980-10c0-16 2-22 5-12 2 9 2 23 0 30-3 6-5-1-5-18zm-640-15c0-14 2-19 5-12 2 6 2 18 0 25-3 6-5 1-5-13zm-60-25c0-16 2-22 5-12 2 9 2 23 0 30-3 6-5-1-5-18zm77 8c-1-10-3-29-4-43s1-34 6-45c5-14 8 0 8 43 1 34-1 62-4 62s-6-8-6-17zm-619 0c0-1 15-10 33-19 37-20 244-77 231-64-5 5-54 20-108 35-106 28-119 33-112 43 2 4-7 7-20 7s-24-1-24-2zm1741-33c-1-25-4-56-7-70-6-25-6-25 8 1 11 18 13 38 8 70l-7 44-2-45zm291-50c0-14 2-19 5-12 2 6 2 18 0 25-3 6-5 1-5-13zm-7257-10c-4-6-11-8-16-5-5 4-9 1-9-4 0-15 11-13 34 4 11 8 15 15 9 15-7 0-15-5-18-10zm96-15c-18-13-40-21-48-18s-13 0-11-8-4-13-14-11c-9 1-20-3-24-9-5-8-3-9 6-4 8 5 11 4 6-3-8-13-44-3-111 30-49 25-75 27-75 6 0-6 11-8 25-6 13 3 23 2 20-2-5-8 31-40 46-40 5 0 8-4 5-9s11-11 31-14c30-5 42-2 63 17 14 13 46 37 73 55 26 18 47 34 47 36 0 7-2 6-39-20zm2360-1c0-11 3-14 6-6 3 7 2 16-1 19-3 4-6-2-5-13zm5170-10c0-11 3-14 6-6 3 7 2 16-1 19-3 4-6-2-5-13zm-7856-24c-3-5-2-10 4-10 5 0 13 5 16 10 3 6 2 10-4 10-5 0-13-4-16-10zm7155-44c-35-68-83-96-168-96-90 0-142 29-188 106-10 16-11 17-11 1 0-9 4-17 9-17 4 0 8-9 8-20s6-19 13-17c6 1 11-3 10-10-3-14 44-50 67-51 156-10 176-10 205 5 43 23 75 63 75 96 0 16 4 26 10 22 12-7 13 5 2 21-4 6-18-12-32-40zm-4470 40c0-2 7-9 15-16 13-11 14-10 9 4s-24 23-24 12zm3403-18c-2-16 1-18 10-9 7 7 8 14 1 21-6 6-10 2-11-12zm404 3c-4-17-3-21 5-13 5 5 8 16 6 23-3 8-7 3-11-10zm-6522 0c-3-5-1-12 5-16 5-3 10 1 10 9 0 18-6 21-15 7zm5835-32c0-29-7-43-30-63-71-59-189-59-260 0-19 16-30 21-30 12 1-41 42-57 172-65 67-4 83-2 118 18 28 16 40 29 40 45 0 15 6 21 18 20 13-1 18 8 20 35 3 32 1 35-23 35-22 0-25-4-25-37zm-2725 20c-4-6-5-12-2-15 2-3 7 2 10 11 7 17 1 20-8 4zm2365 3c0-5 7-9 15-9s12 4 9 9c-3 4-9 8-15 8-5 0-9-4-9-8zm-2725-32c10-11 15-20 11-20-3 0 7-15 24-33 25-28 38-34 73-35 37 0 39 1 15 8-44 13-93 47-108 75-7 14-18 25-23 25-6 0-2-9 8-20zm80-78c-3-3-11 0-18 7-9 10-8 11 6 5 10-3 15-9 12-12zm3308 83c0-8 4-15 9-15 4 0 8-5 8-11 0-24 80-72 105-63 7 3 15 2 18-3 3-4 36-8 74-8 59 0 76 4 110 27 25 16 42 36 45 52 5 25 5 25-33-9-22-19-44-35-50-35-5 0-8-3-6-7 3-5-25-9-63-11-80-4-129 13-181 64-24 23-36 30-36 19zm-7376-2c-11-11-8-23 6-23 7 0 39-14 71-31 31-17 59-29 61-27s-27 19-65 38c-50 26-64 37-52 42 15 6 15 7 1 7-9 1-19-2-22-6zm1333-15c25-13 58-29 74-36 26-12 28-11 16 2-7 9-18 16-25 16-8 0-15 5-17 10-2 6-12 12-23 15-11 2-31 7-45 10s-5-4 20-17zm206 1c-14-11-26-26-25-32 0-8 2-8 6 1 2 6 11 12 19 12s14 5 14 10c0 6 7 10 15 10s15 5 15 10c0 16-15 12-44-11zm7234 10c0-9 7-20 16-23 8-3 12-11 9-16-4-6-1-9 7-8 7 2 12-3 11-9-2-8 7-13 20-13 22 0 22 0-2 19-13 10-32 29-42 42-14 18-19 20-19 8zm-4473-35c-20-19-51-37-68-41-24-4-28-8-16-14 25-15 74 10 101 52 15 21 25 39 24 39-2 0-20-16-41-36zm4752-1-34-38 38 34c34 33 42 41 34 41-2 0-19-17-38-37zm-1284-35-40-43 43 40c23 21 42 40 42 42 0 8-9 0-45-39zm-7603-6c-8-6-1-14 24-26 20-9 38-15 41-13 2 2-10 10-27 17-23 9-28 15-18 21 7 5 9 9 3 9-5 0-16-4-23-8zm6952-14c-19-23-19-23 4-4 12 11 22 21 22 23 0 8-8 2-26-19zm1741 12c-3-6 1-7 9-4 18 7 21 14 7 14-6 0-13-4-16-10zm749-2c-4-6-3-8 4-4 6 3 13 2 17-4s11-8 16-4c5 3 7 10 4 15-8 13-32 11-41-3zm-719-8c-8-13 65-13 85 0 11 7 2 10-32 10-26 0-50-4-53-10zm-2125-29c14-11 30-21 35-21 11 0-7 14-40 31-13 7-12 3 5-10zm650-4c14-8 36-17 50-21l25-7-25 14c-14 8-36 17-50 21l-25 7 25-14zm685-1c23-16 65-30 65-22 0 6-67 36-78 36-4 0 2-6 13-14zm1540-6c-3-5-1-10 4-10 6 0 11 5 11 10 0 6-2 10-4 10-3 0-8-4-11-10zm-5532-27c9-2 25-2 35 0 9 3 1 5-18 5s-27-2-17-5zm2810 0c15-2 39-2 55 0 15 2 2 4-28 4s-43-2-27-4zm595 0c7-3 16-2 19 1 4 3-2 6-13 5-11 0-14-3-6-6zm695 0c15-2 37-2 50 0 12 2 0 4-28 4-27 0-38-2-22-4z"/></g></svg></g></svg>