<svg width="1000px" height="428px" viewBox="0 0 1000 428" version="1.1" xmlns="http://www.w3.org/2000/svg" xmlns:xlink="http://www.w3.org/1999/xlink">
 <title>
  remitly-horizontal-blue
 </title>
 <g id="remitly-horizontal-blue" stroke="none" stroke-width="1" fill="none" fill-rule="evenodd">
  <path d="M674.840022,175.438596 C675.77751,175.438596 676.535088,176.209256 676.535088,177.150563 L676.535088,249.387828 C676.535088,250.332437 675.77751,251.096491 674.840022,251.096491 L651.915448,251.096491 C650.979043,251.096491 650.219298,250.332437 650.219298,249.387828 L650.219298,177.150563 C650.219298,176.209256 650.979043,175.438596 651.915448,175.438596 L674.840022,175.438596 Z M779.005675,153.508772 C779.942041,153.508772 780.701754,154.271759 780.701754,155.21479 L780.701754,249.389376 C780.701754,250.329113 779.942041,251.096491 779.005675,251.096491 L756.082045,251.096491 C755.145679,251.096491 754.385965,250.329113 754.385965,249.389376 L754.385965,155.21479 C754.385965,154.271759 755.145679,153.508772 756.082045,153.508772 L779.005675,153.508772 Z M663.925439,138.157895 C672.100553,138.157895 678.72807,144.784977 678.72807,152.958305 C678.72807,161.133854 672.100553,167.763158 663.925439,167.763158 C655.750324,167.763158 649.122807,161.133854 649.122807,152.958305 C649.122807,144.784977 655.750324,138.157895 663.925439,138.157895 Z M871.698441,184.869251 C871.698441,184.893378 871.710526,184.93286 871.710526,184.955891 L871.710526,252.485034 C871.710526,268.844735 864.688019,280.149675 849.353202,285.381007 C839.646717,288.696377 830.412647,288.967266 821.705925,287.611726 C820.812731,287.469153 820.187604,286.64881 820.266707,285.754987 L821.999262,265.836445 C822.08935,264.806629 823.000123,264.15189 824.02845,264.320785 C826.788234,264.780308 831.884825,264.82637 831.948546,264.82637 C834.104078,264.88998 836.116786,264.352589 837.90757,263.443412 C837.998757,263.401737 838.084451,263.355675 838.17344,263.311807 C841.895633,261.304818 844.853172,257.484959 844.990502,252.980749 L844.990502,246.263369 C844.990502,242.908517 842.648201,243.615898 841.07385,244.840929 C836.111293,248.709044 830.515919,252.453229 822.416745,252.453229 C813.434264,252.453229 806.606216,248.739752 802.008408,242.67053 C799.370573,239.195039 797.149123,231.853627 797.149123,216.381169 L797.149123,177.142892 C797.149123,176.19862 797.913776,175.438596 798.863001,175.438596 L822.101435,175.438596 C823.051759,175.438596 823.821906,176.19862 823.821906,177.142892 L823.821906,216.381169 C823.821906,224.60105 827.893466,228.914431 834.209547,228.914431 C840.530023,228.914431 845.023461,224.60105 845.023461,216.381169 L845.023461,177.142892 C845.023461,176.19862 845.792509,175.438596 846.740636,175.438596 L869.977971,175.438596 C870.928295,175.438596 871.698441,176.19862 871.698441,177.142892 L871.698441,184.869251 Z M738.402807,175.519609 C739.357222,175.519609 740.131579,176.278189 740.131579,177.216864 L740.131579,196.90066 C740.131579,197.840427 739.357222,198.597915 738.402807,198.597915 L727.866685,198.597915 C726.911166,198.597915 726.137913,199.355404 726.137913,200.294079 L726.137913,222.302733 C726.137913,232.372751 734.278055,230.64166 738.139901,230.074089 C739.191525,229.919098 740.131579,230.703874 740.131579,231.747332 L740.131579,247.675336 C740.131579,248.418636 739.626755,248.969835 738.926409,249.302737 C735.730666,250.816623 728.029068,252.192982 719.069278,252.192982 C706.818745,252.192982 699.315984,243.510239 699.315984,232.801704 L699.315984,200.294079 C699.315984,199.355404 698.543836,198.597915 697.586107,198.597915 L690.326368,198.597915 C689.370849,198.597915 688.596491,197.840427 688.596491,196.90066 L688.596491,177.216864 C688.596491,176.278189 689.370849,175.519609 690.326368,175.519609 L697.586107,175.519609 C698.543836,175.519609 699.315984,174.757754 699.315984,173.822353 L699.315984,155.204936 C699.315984,154.269535 700.090341,153.508772 701.04807,153.508772 L724.410246,153.508772 C725.362451,153.508772 726.137913,154.269535 726.137913,155.204936 L726.137913,173.824536 C726.137913,174.757754 726.911166,175.519609 727.866685,175.519609 L738.402807,175.519609 Z M375.220003,200.351229 C384.47962,200.351229 389.809681,195.890253 389.809681,188.780433 L389.809681,188.501898 C389.809681,180.836108 384.201061,176.932203 375.077971,176.932203 L358.978788,176.932203 C358.029705,176.932203 357.26229,177.695148 357.26229,178.636445 L357.26229,198.644785 C357.26229,199.587183 358.029705,200.351229 358.978788,200.351229 L375.220003,200.351229 Z M330.04386,155.215217 C330.04386,154.272819 330.810173,153.508772 331.759256,153.508772 L376.482878,153.508772 C391.496451,153.508772 401.876911,157.413778 408.47315,164.105243 C414.226004,169.680363 417.170144,177.209637 417.170144,186.830683 L417.170144,187.107017 C417.170144,201.258398 409.969442,210.893755 398.812759,216.248689 C397.858171,216.703373 397.508045,217.865958 398.104801,218.73129 L418.557435,248.423428 C419.334758,249.557388 418.523303,251.096491 417.140416,251.096491 L390.207151,251.096491 C389.43313,251.096491 388.709757,250.711165 388.281458,250.070423 L370.061702,222.846574 C369.517796,222.029683 368.595137,221.54197 367.608619,221.54197 L358.978788,221.54197 C358.029705,221.54197 357.26229,222.303815 357.26229,223.246213 L357.26229,249.390047 C357.26229,250.332444 356.490472,251.096491 355.543591,251.096491 L331.759256,251.096491 C330.810173,251.096491 330.04386,250.332444 330.04386,249.390047 L330.04386,155.215217 Z M477.016213,204.421348 L477.016213,204.419143 C477.016213,197.016243 471.597551,191.177476 463.533352,191.177476 C456.053657,191.177476 450.265317,197.016243 450.265317,204.419143 L450.265317,204.421348 C450.265317,205.361591 450.9785,206.122163 451.857438,206.122163 L475.424093,206.122163 C476.303031,206.122163 477.016213,205.361591 477.016213,204.421348 Z M462.386152,173.245614 C487.688873,173.245614 501.096491,191.746251 501.096491,213.547109 L501.096491,218.425792 C501.096491,219.370445 500.332055,220.140937 499.390959,220.140937 L451.100635,220.140937 L451.093002,220.145346 L451.043929,220.145346 C450.109376,220.145346 449.352574,220.909225 449.352574,221.849468 C449.352574,229.250164 456.136534,233.747459 464.725261,233.747459 L464.732895,233.739743 C464.74489,233.739743 464.7667,233.747459 464.7667,233.747459 C469.367492,233.747459 472.652058,231.972791 475.260519,229.246857 C475.827576,228.660445 476.582197,228.296694 477.394615,228.296694 L497.584012,228.296694 C498.785735,228.296694 499.652678,229.531245 499.19358,230.644546 C493.847981,243.553326 482.144804,252.192982 462.386152,252.192982 C440.311292,252.192982 424.342105,235.346865 424.342105,213.547109 C424.342105,191.746251 438.908918,173.245614 462.386152,173.245614 Z M584.60692,184.121056 C590.952079,177.408886 598.410174,173.245614 608.844901,173.245614 C625.024837,173.245614 634.868421,183.24009 634.868421,200.729331 L634.868421,248.301464 C634.868421,249.241452 634.096742,250 633.14783,250 L609.865366,250 C608.912051,250 608.144776,249.241452 608.144776,248.301464 L608.144776,209.19578 C608.144776,201.003676 604.061813,196.702685 597.730964,196.702685 C591.403418,196.702685 586.759034,201.003676 586.759034,209.19578 L586.759034,248.301464 C586.759034,249.241452 585.986255,250 585.038444,250 L561.755979,250 C560.801564,250 560.032086,249.241452 560.032086,248.301464 L560.032086,209.19578 C560.032086,201.003676 555.952426,196.702685 549.621577,196.702685 C543.290729,196.702685 538.791654,201.003676 538.791654,209.19578 L538.791654,248.301464 C538.791654,249.241452 538.019975,250 537.068862,250 L513.784196,250 C512.831982,250 512.061404,249.241452 512.061404,248.301464 L512.061404,176.612082 C512.061404,175.671001 512.831982,174.912453 513.784196,174.912453 L537.125004,174.912453 C538.045294,174.912453 538.791654,175.646955 538.791654,176.55306 L538.791654,181.900061 C538.791654,183.141719 540.366935,183.674015 541.152925,182.708888 C545.675117,177.18154 552.597109,173.547285 560.412972,173.255451 C560.764135,173.2478 561.104291,173.245614 561.437841,173.245614 C570.879623,173.245614 578.243046,177.108309 582.505444,183.927593 C582.962286,184.665374 584.004768,184.75828 584.60692,184.121056 Z" id="Logotype" fill="#212E61">
  </path>
  <path d="M267.105338,226.336541 L208.993454,184.227173 C206.063545,182.107166 202.099421,182.107166 199.173913,184.227173 L173.273427,202.992315 C171.760613,204.085238 169.913329,204.529649 168.069345,204.237764 C166.224261,203.948074 164.605825,202.958298 163.506696,201.449493 C162.407568,199.942883 161.964176,198.099398 162.257937,196.2614 C162.550598,194.422304 163.540803,192.805963 165.053618,191.710845 L183.417536,178.403736 L183.421937,178.403736 L199.408261,166.819408 C208.339919,160.344167 220.652579,161.147399 228.64024,168.73751 C230.405007,170.418593 233.156679,170.52174 235.130489,169.08865 L267.105338,145.921091 L267.105338,226.336541 Z M266.373685,242.796229 L266.290068,243.352566 C266.094227,244.569486 265.282259,246.325186 264.389973,247.171214 C262.038784,249.407536 258.592868,249.584204 256.086546,247.765957 L227.721549,227.192445 L227.514706,227.045405 C225.795048,225.796663 222.986164,225.812026 221.421639,227.250602 C219.145265,229.345372 219.443427,232.852383 221.815521,234.569677 L222.163193,234.820961 L248.177002,253.671693 C249.623803,254.722918 250.692125,256.276713 250.937476,258.04997 C251.279647,260.496977 250.288341,262.798041 248.345337,264.208088 L247.749013,264.641526 C245.485842,266.279814 242.421705,266.279814 240.157434,264.641526 L207.896526,241.261088 C206.176869,240.017833 203.362484,240.029904 201.801259,241.467383 C199.521585,243.566542 199.823048,247.068066 202.19294,248.78536 L228.554422,267.887376 C230.005623,268.939699 231.069545,270.494591 231.313795,272.266751 C231.661468,274.718147 230.671262,277.013725 228.724957,278.427063 L228.125332,278.859404 C225.863262,280.498789 222.798025,280.498789 220.537055,278.859404 L214.659633,274.59854 L188.273946,255.480064 C186.554289,254.233517 183.743204,254.251074 182.180879,255.688553 C179.899005,257.782226 180.202668,261.287042 182.572561,263.004336 L208.934042,282.108547 C210.383043,283.157577 211.446965,284.713566 211.696717,286.482434 C212.038888,288.934928 211.048682,291.234895 209.101277,292.644941 L208.522557,293.066309 C206.494835,294.533416 203.848785,294.68704 201.684635,293.530472 L138.596417,247.813141 L138.596417,145.921091 L166.011917,165.790129 L174.653114,172.048102 L158.994658,183.397605 C155.257181,186.101383 152.803671,190.101087 152.081921,194.653837 C151.35467,199.203295 152.452698,203.761531 155.171363,207.492393 C157.885628,211.218867 161.892661,213.666971 166.455309,214.392294 C167.3718,214.536042 168.288291,214.608465 169.19818,214.608465 C172.822333,214.608465 176.343065,213.476038 179.332387,211.309943 L201.23134,195.442805 C202.932294,194.209425 205.233973,194.209425 206.932726,195.442805 L264.389973,237.09569 C265.954498,238.543045 266.708155,240.656469 266.373685,242.796229 L266.373685,242.796229 Z M259.720602,138.565805 L233.679287,157.436289 C232.883822,158.012378 231.801197,158.067243 230.976025,157.52956 C220.381922,150.645021 206.596056,150.341066 195.628976,156.996266 C195.295606,157.144403 194.973239,157.321071 194.665175,157.542728 L183.415336,165.696857 L145.980052,138.565805 L259.720602,138.565805 Z M275.900566,129.792792 C274.937866,128.827157 273.625293,128.289474 272.256609,128.289474 L133.441845,128.289474 C130.595553,128.289474 128.289474,130.589441 128.289474,133.424896 L128.289474,250.431329 C128.289474,252.0762 129.080538,253.620119 130.410715,254.587949 L197.185799,302.989306 L197.1891,302.989306 C200.563502,305.436313 205.137153,305.436313 208.512654,302.989306 L275.285538,254.604408 C276.621216,253.633287 277.412281,252.090466 277.412281,250.446691 L277.412281,133.429285 C277.412281,132.066423 276.869868,130.759524 275.900566,129.792792 L275.900566,129.792792 Z" id="Mark" fill="#212E61">
  </path>
 </g>
</svg>