<svg xmlns="http://www.w3.org/2000/svg" xmlns:xlink="http://www.w3.org/1999/xlink" width="1000" height="1000"><g><svg xmlns="http://www.w3.org/2000/svg" xmlns:xlink="http://www.w3.org/1999/xlink" width="1000" height="1000"/><svg xmlns="http://www.w3.org/2000/svg" width="1000" height="1000" version="1.0" viewBox="0 0 1000 1000"><g fill="#d4e6f1" transform="matrix(.1 0 0 -.1 0 1000)"><path d="M3541 5676c-42-44-36-142 10-166 26-14 118-12 133 3 22 22 39 82 32 111-12 49-49 76-104 76-38 0-53-5-71-24zm479-156c0-120-21-157-97-166-72-10-79-16-78-71v-48l78-3 77-3v-359c0-400 4-430 58-482 33-33 33-33 178-37 80-2 150 1 154 5 5 5 6 34 2 64l-7 55-112 3-113 3v748l113 3 112 3 3 53c2 37-1 52-10 52-7 1-58 2-113 3l-100 2-3 128-3 127h-139v-80zm5605-15c-9-129-22-144-130-158-41-5-43-11-36-109 1-5 32-8 70-8 39 0 72-4 75-9 3-4 7-179 8-387 3-407 2-401 57-450 32-29 61-34 207-34h124v129l-117 3-118 3v740l118 3 117 3v109h-101c-143 0-139-4-139 140v120h-128l-7-95zm-4163-144c-65-11-156-54-200-95-52-48-67-90-67-181 0-68 4-85 25-116 53-77 132-120 290-157 152-36 202-51 247-73 62-32 83-59 89-116 11-91-32-142-148-173-67-18-192-9-249 18-68 31-129 114-129 173 0 17-8 19-73 19-41 0-76-3-80-6-3-3-1-20 5-37 22-70 55-121 113-176 94-87 155-111 300-118 180-9 322 44 386 145 26 40 29 55 29 123 0 86-15 131-57 175-66 69-124 93-378 155-166 40-225 86-225 173 0 40 5 51 38 84 47 47 99 62 207 62 158 0 248-59 269-177 8-39 18-44 82-41 59 3 59 3 62 43 6 72-32 156-93 207-31 26-94 57-155 77-46 15-222 22-288 12zM63 5342l-63-3v-989h160v268c1 276 7 336 45 416 19 39 76 88 130 110 35 15 212 39 225 31 5-3 12 0 16 6 9 15 10 147 1 156-4 3-41 5-84 4-133-4-256-78-301-182-9-21-20-39-23-39s-9 46-13 103c-4 58-12 106-19 112s-40 9-74 7zm1781-7c-2-5-3-228-2-495l3-485h150l6 300c6 338 12 372 77 461 41 55 103 84 186 84 102 0 152-30 191-115 34-73 45-186 45-468v-268l73 3 72 3 6 305c5 275 8 310 26 357 35 88 79 141 142 168 40 18 163 20 194 4 35-18 77-62 91-94 7-16 19-43 26-60 9-21 15-124 19-355l6-325 73-3 72-3v308c0 238-4 325-15 383-28 135-95 239-180 279-36 17-64 21-137 21-97 0-139-10-198-47-55-34-130-125-130-158 0-29-31-12-44 25-20 59-63 113-118 147-50 32-56 33-150 33-78 0-107-4-142-21-67-31-120-83-152-146l-28-58-8 40c-4 22-7 73-7 113-1 39-4 72-8 72-85 5-136 3-139-5zm1700 3c-4-5-6-699-4-981 0-4 35-7 78-5l77 3v980l-73 5c-41 3-76 2-78-2zm4880 3c-10-10-3-656 7-695 35-135 52-171 102-224 55-58 169-102 260-102 49 0 127 20 182 46 51 24 126 101 149 153 11 22 23 41 28 41 4 0 8-19 8-42 1-24 6-70 13-103l13-60h129l3 492 2 491-76 4c-42 2-78-1-81-5-3-5-4-119-4-255 2-297-14-404-73-492-52-78-86-101-181-118-47-9-74-8-122 2-112 24-159 71-192 192-7 27-11 154-11 357v315l-76 4c-42 2-78 1-80-1zm-7425-24c-74-29-105-50-161-109-50-53-87-117-107-188-7-25-17-58-22-74s-9-63-9-105c1-208 107-404 255-471 202-92 435-55 576 91 53 55 89 124 92 177 2 37 2 37-64 40l-66 3-27-55c-56-114-131-158-276-164-86-3-101-1-151 22-60 27-118 84-142 137-33 78-37 93-37 149v60h780v48c-1 106-58 256-126 331-42 48-99 84-176 112s-261 26-339-4zm248-111c118-31 187-103 222-232 6-23 11-44 11-48 0-3-139-6-310-6-241 0-310 3-310 13 0 18 29 97 48 132 23 42 85 101 124 119 34 15 107 33 143 35 11 0 44-5 72-13zm5223 112c-144-54-238-156-296-323-25-70-25-280-1-348 53-151 159-256 297-296 126-36 187-40 280-17 180 45 285 134 339 287 24 66 16 79-49 79-57 0-80-7-80-26 0-23-40-87-73-119-69-66-192-101-297-83-87 15-123 31-176 80-83 77-127 221-104 346 26 139 90 231 199 283 69 33 215 31 291-3 71-32 110-70 144-140 28-58 28-58 92-58s64 0 64 31c0 88-115 234-222 283-90 41-117 46-237 45-90-1-128-6-171-21zm1089-1c-174-68-265-196-287-405-19-189 26-348 130-458 28-30 57-54 64-54 8 0 14-4 14-9s8-11 18-15c62-22 83-29 132-41 137-35 309-3 422 80 48 35 116 126 135 180 33 91 38 127 38 245-1 73-6 142-14 165-24 76-72 163-114 207-95 100-174 128-356 127-103-1-136-5-182-22zm287-112c134-35 196-118 223-300 22-143-31-316-117-382-117-89-322-81-428 19-108 101-136 349-58 514 62 131 216 192 380 149z"/></g></svg><svg xmlns="http://www.w3.org/2000/svg" width="1000" height="1000" version="1.0" viewBox="0 0 1000 1000"><g fill="#8fddf1" transform="matrix(.1 0 0 -.1 0 1000)"><path d="M3541 5676c-42-44-36-142 10-166 10-6 40-10 68-10 41 0 53 4 70 26 29 37 36 85 17 122-21 40-44 52-99 52-33 0-49-6-66-24zm477-175c-4-118-15-137-87-146-80-11-87-16-86-71v-49l83-3 82-3v-382c0-421 1-425 63-471 25-19 46-21 173-24l145-4-3 64-3 63-115 5-115 5-3 220c-2 121 0 288 3 372l7 152 112 3 111 3 3 53c2 37-1 52-10 53-7 0-56 0-109-1-73-1-99 2-108 14-8 10-11 49-9 128l3 113-66 3-67 3-4-100zm5607 2c-4-54-11-106-16-115-9-18-55-35-104-40-51-4-53-8-46-110 1-5 35-8 76-8 53 0 75-4 75-12 0-7 1-179 2-383 3-398 4-405 57-452 32-28 61-33 207-33h124v129l-117 3-118 3v740l118 3 117 3v109h-97c-153 0-143-10-143 136v124h-128l-7-97zm-4163-142c-105-17-215-87-250-161-24-49-23-173 2-219 43-80 131-130 296-169 152-36 202-51 247-73 63-32 85-61 91-117 10-112-67-172-229-180-102-5-172 14-224 59-35 31-75 105-75 139 0 20-5 21-77 18-90-3-89-2-46-100 44-99 153-186 284-227 48-15 202-13 269 3 116 28 177 65 221 134 25 40 29 55 29 123 0 91-14 130-67 182-64 65-121 88-368 148-167 41-225 86-225 175 0 42 4 51 38 83 49 47 98 61 205 61 159 0 253-59 270-169 8-47 16-52 83-49 59 3 59 3 62 47 9 119-88 228-248 280-46 15-222 22-288 12zM63 5342l-63-3v-990l78 3 77 3 2 255c3 267 11 345 45 418 23 47 90 105 141 121 44 13 206 33 217 26 5-3 12 0 16 6 9 15 10 147 1 156-4 3-41 5-84 4-133-4-256-78-301-182-9-21-20-39-23-39-10 0-19 68-19 141 0 42-5 70-12 75s-41 8-75 6zm1781-7c-2-5-3-228-2-495l3-485 73-3 72-3v243c0 329 16 425 85 519 45 62 101 89 187 89 106 0 158-31 197-120 31-72 41-183 41-466v-264h70c64 0 70 2 74 23 3 12 7 150 9 307 4 258 6 290 24 337 35 88 79 141 142 168 40 18 163 20 194 4 53-27 95-81 120-153 6-18 13-172 16-356l6-325 73-3 72-3v303c0 389-14 470-99 585-17 23-54 56-83 73-49 27-61 30-148 30-52 0-111-6-130-13-84-29-156-95-192-174-10-24-23-43-28-43s-14 17-19 38c-17 59-66 123-123 159-50 32-56 33-150 33-78 0-107-4-142-21-67-31-120-82-150-144-15-30-32-55-37-55s-9 49-9 110-3 110-7 110c-85 5-136 3-139-5zm1700 3c-3-5-6-709-4-980 0-5 34-8 75-8h75l2 438c1 240 3 462 3 492v55l-74 5c-40 3-75 2-77-2zm4880 3c-2-2-4-145-4-317 0-243 3-329 15-386 18-85 51-160 89-205 53-62 173-113 269-113 135 1 282 89 332 199 10 23 22 41 26 41s10-21 14-47c3-27 9-73 13-103l7-55 63-3c62-3 62-3 62 25 0 15 1 238 2 495l3 467-73 3c-41 2-76 0-78-4-2-3-6-136-7-295-4-318-11-364-71-453-52-78-88-102-179-119-62-11-150 0-199 25-34 18-76 61-90 94-38 86-41 113-43 430l-2 315-73 5c-39 3-74 3-76 1zm-7425-24c-74-29-105-50-161-109-50-53-87-117-107-188-7-25-17-58-22-74-15-49-10-169 10-248 64-247 226-378 471-378 134 0 279 63 353 153 47 57 77 120 80 165 2 37 2 37-64 40l-66 3-27-55c-55-113-131-158-274-164-78-3-101-1-147 18-105 43-181 160-187 290l-3 55 393 3 392 2v48c-2 160-106 349-227 411-84 42-124 51-243 50-92-1-126-5-171-22zm272-117c49-14 113-61 149-112 27-37 36-59 56-140l6-28h-311c-242 0-311 3-311 13 0 18 29 97 48 131 72 127 211 179 363 136zm5199 118c-144-54-238-156-296-323-26-73-25-270 0-345 31-90 56-132 115-190 71-70 117-93 257-129 92-24 215-6 327 47 104 50 177 132 216 243 24 66 16 79-49 79-57 0-80-7-80-26 0-7-9-30-21-51-76-139-279-196-447-126-128 53-212 238-182 401 26 139 90 231 199 283 38 18 63 22 141 22 86 0 102-3 160-31 73-35 115-77 140-143 18-44 18-44 84-47s66-3 66 28c0 85-110 229-213 278-96 47-121 52-246 51-90-1-128-6-171-21zm1089-1c-174-68-265-196-287-405-17-165 27-339 109-435 110-127 293-182 480-143 127 26 215 81 277 173 69 104 87 175 86 338-1 116-4 137-28 200-33 86-66 139-120 188-88 82-168 107-336 106-103-1-135-5-181-22zm287-112c131-34 199-124 224-293 22-150-31-322-118-389-116-89-324-81-426 15-109 104-138 352-60 518 63 132 215 192 380 149z"/></g></svg><svg xmlns="http://www.w3.org/2000/svg" width="1000" height="1000" version="1.0" viewBox="0 0 1000 1000"><g fill="#57cbed" transform="matrix(.1 0 0 -.1 0 1000)"><path d="M3547 5680c-32-25-43-76-27-124 14-44 35-56 95-56 65 0 95 31 95 98 0 40-5 54-26 76-34 33-98 36-137 6zm479-96c-3-9-6-46-6-83 0-116-26-151-111-151-52 0-59-8-59-66v-54h159l3-387c3-422 4-424 61-467 23-17 46-21 146-24 66-3 131-2 145 2 24 6 26 11 26 60v53l-120 8-120 7 2 371 3 372 110 5c106 5 109 6 116 30 4 14 7 37 8 53 1 27 1 27-103 27-57 0-111 3-120 6-13 5-16 26-16 130v124h-59c-44 0-60-4-65-16zm5602-79c-7-132-18-145-128-158-47-5-47-7-41-110 1-5 35-7 76-5 61 2 75 0 77-12 1-8 2-179 2-380 1-358 1-366 24-411 32-65 53-72 220-77l143-4-3 64-3 63-117 3-118 3v749h240v110h-97c-153 0-143-10-143 136v124h-127l-5-95zm-4166-145c-59-9-147-49-193-87-67-57-95-169-65-260 33-98 117-151 322-204 184-47 220-58 255-82 103-71 97-192-14-253-49-27-59-29-167-29-99 0-121 3-155 22-58 31-95 75-116 135-18 53-18 53-85 56-37 2-71-1-75-5-13-13 37-122 79-172 54-64 118-107 203-138 66-23 82-25 178-20 124 6 213 32 282 82 63 46 89 101 89 191 0 87-22 137-84 191-55 48-131 78-311 122-202 50-271 97-269 187 2 91 99 148 249 147 103-1 180-29 229-83 20-22 36-50 37-63 1-34 7-59 16-67 4-4 36-5 71-3 62 5 62 5 62 43 0 119-87 222-229 270-71 24-224 34-309 20zm-4977-20c-137-10-238-74-294-184-13-26-26-44-30-41-3 4-8 55-11 113l-5 107-72 3-73 3v-992l73 3 72 3 7 240c8 291 14 357 37 410 46 103 121 150 263 165 51 5 101 10 111 10 15 0 17 11 17 79 0 44-3 81-7 83-5 2-44 1-88-2zm1360-1c-3-8-4-232-3-499l3-485h140l5 290c6 267 8 295 29 355 55 160 160 229 303 199 41-9 62-21 94-53 70-73 76-111 81-478l5-318h135l6 274c8 298 14 355 52 433 51 103 116 147 220 147 105-1 161-38 207-139 22-48 23-62 28-380l5-330h140v325c0 283-3 333-18 389-36 127-96 209-182 251-32 16-61 20-134 20-83 0-100-3-157-31-67-32-132-99-161-166-16-40-31-42-39-5-17 72-90 157-161 187-58 24-202 20-261-7-61-29-121-90-152-155-14-29-28-53-32-53-5 0-8 52-8 115v115h-54c-30 0-61 3-70 6s-18 0-21-7zm1699 2c-2-2-4-227-4-498v-494l73 3 72 3 3 492 2 491-71 4c-39 2-73 1-75-1zm4879-8c-3-6-3-162 0-345 4-353 8-381 57-478 35-68 60-98 110-130 98-63 227-73 347-29 66 25 162 111 188 168 31 69 37 58 52-84l8-80 63-3 62-3v991h-65c-36 0-68 1-72 3-5 1-11-133-14-298-7-330-13-367-72-455-63-93-123-124-240-123-103 0-178 36-219 103-47 79-58 166-58 484v284l-71 4c-49 2-73-1-76-9zm-7411-12c-127-44-232-151-276-281-60-178-34-384 67-532 181-265 627-244 787 37 16 28 31 66 35 86 6 32 4 37-17 42-12 4-44 7-70 7-46 0-47 0-71-52-30-67-77-114-147-146-75-35-199-36-278-2-102 44-181 168-185 290l-2 55 394 3 394 2-7 68c-14 143-54 231-146 323-91 92-145 112-305 116-96 2-131-1-173-16zm290-133c29-14 68-40 87-59 42-41 84-130 85-178l1-36H865l1 32c2 41 48 141 82 176 90 94 233 120 354 65zm5182 133c-193-66-311-227-330-451-13-154 39-314 134-409 58-58 168-113 265-131 239-44 484 99 547 321 10 35-9 49-69 49-50 0-71-8-71-28 0-26-47-97-86-130-82-70-224-94-345-59-70 21-150 89-185 158-98 194-18 458 165 543 37 17 65 21 141 21 86 0 101-4 160-32 79-38 115-74 139-139 19-49 19-49 85-52s66-3 66 29c0 35-46 127-90 181-40 49-123 102-198 127-80 27-251 28-328 2zm1100 5c-200-66-300-212-311-456-8-184 36-320 136-420 174-174 518-168 687 12 96 101 127 191 128 368 1 105-3 136-22 194-45 134-139 242-249 286-49 20-78 24-193 26-92 2-148-1-176-10zm321-140c90-44 143-128 166-260 23-137-26-327-102-391-70-58-106-70-214-70-126 0-176 18-238 83-104 113-128 337-53 506 26 59 97 129 147 144 63 20 74 21 157 18 64-3 94-10 137-30z"/></g></svg><svg xmlns="http://www.w3.org/2000/svg" width="1000" height="1000" version="1.0" viewBox="0 0 1000 1000"><g fill="#30b5e0" transform="matrix(.1 0 0 -.1 0 1000)"><path d="M3562 5690c-35-15-55-72-42-120 13-49 42-70 95-70 62 1 95 37 95 105 0 72-74 114-148 85zm463-177c-3-49-10-99-14-113-9-31-44-50-93-50-61 0-68-6-68-64v-52l80 4 79 3 3-393c3-353 5-396 21-425 29-55 59-63 217-63h140v109l-117 3-118 3v759l40 1c22 1 73 2 113 3l72 2v99l-112 3-113 3-3 128-3 127h-117l-7-87zm5610 75c-2-7-5-53-7-101-3-83-5-90-31-113-17-14-41-24-60-24-68 0-77-8-77-61 0-32 4-49 13-50 6 0 41-1 77-2l65-2 5-395c4-356 7-399 23-423 32-49 52-55 192-57 182-3 165-9 165 55v55h-107c-60 0-114 4-121 8-9 7-12 90-10 381l3 373 115 1 115 2 3 52 3 52-118 3-118 3-3 128-3 127h-60c-39 0-61-4-64-12zm-4151-228c-120-18-217-72-261-147-24-41-28-58-27-118 0-83 24-137 81-184 48-39 109-63 298-112 186-49 243-79 269-142 17-40 18-52 8-86-16-50-63-96-120-116-60-20-204-20-264 1-64 21-122 82-143 150l-17 54h-69c-82 0-84-4-40-95 75-160 248-256 432-242 244 19 369 111 369 269 0 74-15 118-54 164-52 61-134 99-307 143s-223 62-257 94c-83 78-61 178 50 228 43 19 70 23 148 24 86 0 101-3 161-31 74-35 107-77 116-144 6-40 6-40 76-40h70l-7 57c-17 146-129 242-318 273-70 11-118 11-194 0zM0 4851c0-443 2-490 16-493 9-2 43-1 75 0l59 4v191c0 375 20 473 112 551 51 44 115 65 231 73l87 6v157h-64c-140 0-254-64-318-177-16-29-34-53-39-53s-9 42-9 93c0 139 1 137-81 137H0v-489zm1035 475c-123-40-213-113-264-213-46-92-64-167-64-268 1-329 224-551 523-519 173 18 304 106 371 248 42 88 40 96-23 97-29 0-60 2-69 4-11 2-24-13-40-46-80-172-314-232-478-123-78 51-141 179-141 287v37l133 2c72 1 240 0 373-1 132-2 250-1 261 3 17 6 19 13 16 64-14 186-108 333-261 405-62 29-76 32-182 34-75 2-129-2-155-11zm251-127c98-37 180-142 192-247l5-42-314 2c-314 3-314 3-310 28 15 109 108 228 201 260 74 26 155 25 226-1zm561-351c5-476 5-492 24-491 10 0 42 1 69 2l50 1v268c0 292 8 354 57 444 82 150 258 186 369 74 72-71 77-102 82-473l3-323h38c21 0 52 3 69 6l30 6 4 282c5 250 8 288 26 346 30 93 72 153 129 187 41 24 59 28 118 28 90-1 144-28 185-91 45-71 50-119 50-448 0-234 3-305 13-308 11-5 119 1 125 6 9 10 5 619-5 666-31 148-98 248-194 290-71 30-210 26-282-9-63-31-126-95-156-159-19-41-27-49-38-41-7 6-13 18-13 26 0 24-47 107-77 135-51 48-109 68-203 68-69 0-95-5-135-24-64-30-114-81-156-159l-34-62-2 100c-4 151-1 145-82 145h-69l5-492zm1695 0 3-493 65 3c36 2 67 6 70 9 3 2 6 223 8 489l3 484h-151l2-492zm2937 469c-166-57-277-192-315-383-46-234 52-460 240-553 80-39 133-50 237-51 195 0 356 95 429 253 47 102 47 102-35 102-69 0-69 0-79-33-14-51-83-121-149-153-108-51-226-48-337 9-204 103-229 452-44 621 84 77 210 102 334 65 99-29 183-103 196-171 3-18 10-35 14-38s35-2 69 1c73 8 75 16 32 108-51 106-150 190-270 226-91 29-234 27-322-3zm1099 4c-198-64-307-237-308-487 0-89 26-207 61-275 37-73 121-152 202-190 65-30 82-34 182-37 168-6 264 24 361 112 155 139 198 432 96 650-55 116-154 200-276 232-75 20-248 17-318-5zm328-133c96-50 146-131 166-267 24-160-27-325-122-400-63-50-119-65-223-59-196 10-294 120-305 343-8 169 40 299 132 363 67 45 97 52 206 49 80-3 103-7 146-29zm517-185c4-279 7-348 22-398 34-119 92-197 179-243 46-24 61-27 161-27 98 0 116 3 167 27 70 33 138 94 169 153 13 25 28 44 34 42 5-2 15-48 20-103l10-99 39-3c22-2 50-1 63 2 23 6 23 6 23 496v490h-148l-4-302c-4-263-7-310-23-353-37-100-107-183-174-207-20-7-73-13-118-12-104 1-163 28-210 97-54 81-63 147-63 481v296h-152l5-337z"/></g></svg><svg xmlns="http://www.w3.org/2000/svg" width="1000" height="1000" version="1.0" viewBox="0 0 1000 1000"><g fill="#02b9f9" transform="matrix(.1 0 0 -.1 0 1000)"><path d="M3569 5689c-56-21-70-118-24-164 33-34 102-35 133-2 46 49 36 134-19 162-32 17-52 18-90 4zm468-96c-3-4-8-51-12-102-9-114-25-136-101-146-74-10-74-10-74-60v-45h80c57 0 80-4 81-12 1-7 2-184 3-393 1-343 3-383 19-412 29-54 59-63 212-63h136l-3 53-3 52-105 3c-58 1-109 7-114 12-10 10-9 737 0 752 3 4 55 8 115 8h110l-3 48-3 47-112 3-112 3-3 127-3 127-52 3c-28 2-53-1-56-5zm5600-45c-4-29-7-70-7-91 0-79-45-117-137-117-33 0-33 0-33-50v-49l78-3 77-3 5-395c5-424 5-421 59-460 28-19 41-20 173-18l143 3v100l-115 3c-76 2-117 7-122 15-4 7-8 174-8 372s4 365 8 372c5 8 46 13 122 15l115 3v90l-120 5-120 5v250l-56 3-56 3-6-53zm-4217-202c-64-18-106-42-156-88-113-104-87-295 51-370 56-31 106-48 245-84 152-39 221-66 257-101 84-85 35-216-96-254-25-8-86-14-136-13-72 1-99 5-135 24-77 38-118 89-135 168-7 32-7 32-76 32-82 0-84-4-40-95 52-111 173-205 300-235 64-15 181-8 273 15 147 38 228 124 228 242 0 72-17 120-58 165-67 74-130 102-347 154-194 46-265 97-265 191 0 80 82 138 213 149 171 15 317-71 317-186 0-31 0-31 68-28l67 3-3 50c-6 123-102 218-259 259-73 19-247 20-313 2zM4 5327c-3-8-4-227-2-488l3-474 66-3 66-3 7 248c10 350 21 404 97 481 60 61 154 92 276 92 61 0 66 8 61 101l-3 54-57 3c-68 4-149-18-210-57-49-31-83-72-118-139-13-25-26-40-31-35s-12 60-16 121l-6 112H73c-44 0-65-4-69-13zm1024-6c-81-26-139-63-193-123-86-96-128-218-127-368 2-201 103-382 253-457 202-99 471-43 594 125 37 51 79 148 70 163-4 5-35 9-69 9-64 0-64 0-91-55s-78-106-145-141c-28-15-56-19-140-19-94 1-110 3-156 27-91 48-150 138-175 267-19 99-42 94 401 90l375-4 3 43c5 62-14 139-52 218-56 116-154 196-281 230-71 19-198 17-267-5zm259-122c100-38 183-146 195-255l3-29-319-3-318-2 7 37c10 58 74 170 114 204 83 68 211 88 318 48zm563-349v-490h128l5 278c5 298 12 344 62 435 55 98 139 144 242 134 94-10 153-59 191-159 14-36 17-98 20-365l3-323h65c35 0 65 1 65 3 1 1 5 133 9 292 6 277 8 293 32 357 47 125 112 184 213 194 86 9 159-18 202-75 58-76 64-113 70-458l6-313h127v313c0 281-2 322-20 392-31 121-94 210-179 252-59 28-183 30-256 2-86-32-195-147-195-206 0-8-7-13-16-11-10 2-23 24-32 53-21 65-109 155-168 173-58 17-162 15-217-4-66-22-136-89-171-163-46-95-53-83-55 92l-1 87h-130v-490zm1690 0v-490h140l1 308c1 169 3 383 5 476 3 115 0 173-7 183-7 8-34 13-75 13h-63l-1-490zm2969 476c-111-31-227-122-282-220-50-89-69-171-69-286 0-218 80-354 261-442 76-37 93-42 180-46 166-8 290 35 386 132 55 57 115 162 115 203 0 22-4 23-62 23-63 0-63 0-91-60-32-69-88-116-177-151-46-18-70-20-142-16-138 7-230 64-288 178-29 57-53 174-45 223 38 239 168 357 381 343 136-8 247-79 280-180 16-49 17-49 53-43 20 3 48 6 64 6 35 0 35 18-3 98-55 116-162 201-297 236-72 19-199 19-264 2zm1090 0c-102-29-205-106-254-191-37-64-65-163-72-256-16-235 79-425 257-507 66-31 87-36 176-40 300-14 479 136 515 430 14 118-4 230-55 333-82 165-225 246-432 244-49 0-110-7-135-13zm270-122c130-38 211-177 211-359 0-176-76-319-197-370-45-20-188-23-249-6-162 44-257 262-209 477 33 149 84 215 200 261 44 17 183 16 244-3zm556 62c-13-131 1-583 19-654 31-120 91-203 180-250 46-24 62-27 161-27 105 0 114 2 177 33 70 34 136 98 165 159 8 19 21 32 27 30 14-5 25-64 25-138 1-56 1-56 40-63 22-3 50-2 63 3 23 9 23 9 23 492v484l-67 3c-38 2-69 2-69 0-1-2-5-140-8-308-8-345-11-360-91-467-55-72-118-103-211-103-98 0-159 22-207 74-75 81-95 211-90 571l3 230-67 3-66 3-7-75z"/></g></svg><svg xmlns="http://www.w3.org/2000/svg" width="1000" height="1000" version="1.0" viewBox="0 0 1000 1000"><g fill="#01b8e8" transform="matrix(.1 0 0 -.1 0 1000)"><path d="M3571 5689c-27-11-50-37-51-57 0-8 8-5 22 8 23 21 23 21 32 0 5-11 13-20 17-20s10-14 14-31c7-29 8-30 26-13 25 23 25 44-1 37-16-4-19-2-14 11 7 19 18 20 45 6 23-13 24-40 4-83-16-32-16-32 5-8 11 13 20 31 20 40 0 14 2 14 10 1 7-11 10-7 10 18 0 23-4 31-12 26-6-4-8-3-5 4 11 17-3 42-34 57-32 17-54 18-88 4zm462-106c-3-7-3-18 0-25s6-3 6 9c1 16 6 21 25 19 14-2 30 1 38 6s-1 7-26 6c-21-1-40-8-43-15zm5604-35c-4-29-7-70-7-91 0-79-45-117-137-117-31 0-33-2-32-32 1-22 3-26 6-12 3 18 13 22 59 27 66 7 106 29 98 55-5 14-4 15 5 2 10-13 12-13 21 0 5 8 10 21 10 28 0 6 7 12 15 12s15 7 15 15c0 9-6 12-15 9-8-4-15-2-15 2 0 5-3 41-5 79-2 39-2 62 1 53 4-13 16-18 45-18 30 0 39 4 39 18 0 15 2 15 11 2s10-13 6 0c-2 11-20 16-59 18l-55 3-6-53zm-6104 13c1-16 5-27 10-24 4 2 7-3 7-11 0-9 5-16 10-16 14 0 13 12-6 48-19 40-24 40-21 3zm6187-136c0-32 3-55 7-51 7 7 5 97-3 105-2 2-4-22-4-54zm-5698 15c0-14 2-19 5-12 2 6 2 18 0 25-3 6-5 1-5-13zm-20-60c-7-11-8-20-3-20 9 0 24 30 18 36-1 2-8-6-15-16zm-49-27c-13-2-23-8-23-12 0-5 11-6 25-3 14 2 25 8 25 13s-1 8-2 8c-2-1-13-4-25-6zm1467-8c-127-33-244-151-212-212 5-10 9-46 8-80 0-33 2-59 7-56 4 2 7-1 7-6 0-20 2-26 21-52 30-42 128-87 270-123 74-19 155-42 182-51 47-16 73-13 61 6-4 6-11 6-20-2-10-8-14-8-14 0 0 10-32 27-65 35-5 2-23 8-38 14-16 7-34 12-42 12s-17 5-21 12c-5 8-2 9 12 4 18-7 81-21 152-33 18-3 35-9 38-14s14-9 24-9c28 0 70-21 70-36 0-7 6-15 13-17 9-4 9-6-1-6-8-1-27 9-44 20-25 18-32 19-39 8-12-19-11-26 3-35 6-4 8-3 4 4-12 19 10 21 26 2 26-30 39-60 32-71-4-6-1-15 6-19 9-6 9-20-4-63-29-101-110-143-271-141-95 1-151 20-203 68-27 24-62 87-62 111 0 9-4 14-9 11-5-4-7 3-4 14 5 18 0 20-57 20-53 0-61-2-58-17 2-10 14-19 28-21 35-5 60-31 59-61-1-14-3-19-6-11-5 19-53 55-53 40 0-6-5-8-11-5-6 4-1-11 10-34 12-23 18-41 15-41-4 0 1-9 11-20s22-17 26-14c5 3 6-1 4-8-6-14 65-73 122-102 41-21 74-21 67-1-4 8-15 15-26 15-10 0-16 5-13 10 3 6 2 10-3 10-6 0-12 7-15 15-5 11 0 11 26-4 18-9 64-23 102-30 71-12 119-31 83-31-10 0-18-4-18-10 0-25 170-3 232 31 10 5 24 9 31 9 21 0 94 67 111 101 22 44 30 137 16 187-12 48-66 113-120 147-44 27-133 57-275 91-196 46-265 96-265 193 0 38 5 49 38 80 90 85 287 95 409 20 23-14 34-18 29-8-4 8 6-2 23-21 22-24 29-40 25-55-6-17-5-18 9-7 12 10 16 10 20 0s6-11 6 0c1 7-6 29-14 49-19 45-14 51 18 21 13-13 36-32 50-44 25-21 25-21 30 5 6 31-20 78-69 120-79 70-180 100-334 99-58-1-125-6-150-13zm405-105c3-5 1-10-4-10-6 0-11 5-11 10 0 6 2 10 4 10 3 0 8-4 11-10zm35-24c0-3-4-8-10-11-5-3-10-1-10 4 0 6 5 11 10 11 6 0 10-2 10-4zM21 5303c1-21 1-81-1-133-4-95-4-95-10 35-3 72-6-72-6-320 0-374 1-405 6-185 3 146 7 234 8 195 2-50 5-66 12-55s10 7 10-19c0-48 7-36 14 28 7 59 25 104 26 63 0-12 9-30 20-39 17-15 20-30 20-102 0-131 8-91 12 57 2 72 6 132 10 132 3 0 11 14 17 31s15 28 21 24 7 1 3 11c-5 13-3 15 7 9 8-5 11-4 7 2s1 19 9 29c9 10 12 12 8 4s8 0 27 19c48 48 121 78 207 87 42 4 68 10 61 14-8 6-4 10 12 13 19 3 17 5-9 6-18 0-31-3-28-8 4-5-5-4-18 2-28 14-27 17 5 21 41 6 59 17 59 38 0 10 5 16 10 13 6-4 8-10 6-14-3-4-1-21 4-37 6-22 9-24 10-9 1 20 1 20 10 0 7-16 9-11 9 20 0 22-3 47-9 55-6 9-5 17 2 21 23 15-6 29-59 29-144 0-256-68-323-197-12-24-26-43-31-43s-9 19-9 43-4 47-9 53c-12 11-16 102-6 129 5 14 4 16-3 6-7-9-12-10-16-2-4 6-27 11-52 11-45 0-45 0-43-37zm142-240c-7-2-10-10-7-18 3-7-4-18-15-24-18-10-19-9-8 11 22 41 29 49 36 42 3-4 1-9-6-11zm865 258c-81-26-139-63-193-123-75-84-119-187-110-263 4-32 3-35-4-15-7 18-9-1-10-67-1-52 3-93 8-93s12 10 14 23c3 13 5 9 5-13-1-19 3-43 7-52s4-21 1-26c-6-9 16-78 40-123 8-16 12-34 9-40-4-5-3-8 2-7 4 2 9-1 10-5s10-16 21-25c10-9 11-13 2-7-10 6-9 2 4-12 10-13 23-20 28-17 4 3 7 0 6-8-2-7 3-12 10-10 8 1 11-2 8-7-7-11 72-61 97-61 8 0 17-5 19-11s12-10 23-8c17 4 18 5 2 21-9 9-17 18-17 20 0 10 119-10 145-24 30-16 30-16 3-23-15-4-43-5-62-2-20 3-34 1-31-3s50-8 105-9c99-2 152 9 220 44 15 8 31 11 35 7 5-4 5-1 1 6-5 8 0 12 13 12 11 0 23 5 27 12 5 7 3 8-6 3-9-6-11-4-6 4 5 7 14 10 22 7 7-3 29 14 51 38 41 47 83 113 65 102-8-5-10-2-6 8 3 9 10 14 14 11s7 10 6 28c-1 22 3 31 12 29 8-1 12 3 10 10-3 8-28 14-70 16l-65 3-27-55c-28-56-79-106-146-142-28-15-56-19-140-19-94 1-110 3-156 27-60 32-115 92-141 154-10 24-21 44-25 44-3 0-4 10 0 22 4 15 2 19-7 13-10-6-12 1-7 26 3 19 3 28 0 21-3-6-10-10-15-6-21 13 0-143 23-173 5-7 4-13-4-15-13-5-54 60-44 69 3 3-1 12-9 20s-17 26-21 41c-3 15-9 35-15 44-11 22-12 98-1 98 4 0 13-5 20-12 9-9 13-7 18 5 3 9 10 17 15 17 4 0 6-7 2-15-4-13 0-15 23-9 16 4 88 10 159 14l130 6-120 4c-120 3-120 3 70 12 105 4 238 8 298 9 59 0 107 5 107 10s9 9 20 9c13 0 20 7 20 18 0 10 5 23 10 28 7 7 6 24-5 53-18 51-18 51-5 51 6 0 10-11 10-25 0-17 5-25 18-25 10 0 23-5 29-11 8-8 15-8 26 2 12 12 12 20 2 50-55 154-161 255-310 295-71 19-198 17-267-5zm188-102c32-6 79-21 103-35 24-13 46-22 51-19 11 7 73-62 66-73-3-5 1-13 10-16s14-12 12-18c-3-7 1-18 8-25s10-22 7-33-1-20 5-20c5 0 10-17 10-37l1-38-320 3c-178 1-319 6-319 11s-3 17-7 27c-4 12-3 15 5 10 8-4 12 0 12 11 0 32 75 155 112 185 31 26 144 76 174 77 6 1 37-4 70-10zm295-156c13-16 12-17-3-4-10 7-18 15-18 17 0 8 8 3 21-13zm-666-193c-3-5-10-10-16-10-5 0-9 5-9 10 0 6 7 10 16 10 8 0 12-4 9-10zm-118-52c-3-8-6-5-6 6-1 11 2 17 5 13 3-3 4-12 1-19zm849-204c-4-9-9-15-11-12-3 3-3 13 1 22s9 15 11 12c3-3 3-13-1-22zm-36-127c0-2-15-16-32-33l-33-29 29 33c28 30 36 37 36 29zm-170 669c0-2 8-10 18-17 15-13 16-12 3 4s-21 21-21 13zm505 175c-3-6 2-11 12-12 16 0 16-1-2-9-17-7-15-9 13-9 17-1 32 4 32 9 0 6 5 10 11 10 5 0 7-4 4-10-3-5-1-10 4-10 6 0 11 7 11 15 0 9-9 15-24 15-13 0-31 3-39 6s-18 1-22-5zm328-7c-63-23-129-87-168-165-21-40-31-70-25-74 6-3 10-1 10 4 0 33 18 63 32 55 6-4 8-3 4 4-3 6-2 13 3 16s11-4 15-16c5-22 5-22 33 4 67 64 164 75 268 31 40-17 63-33 60-40-2-7 1-12 8-10 7 1 11-5 9-14-1-9 4-19 13-22 8-4 12-13 9-22-3-8-1-15 5-15s11-10 12-22c0-13 4-147 8-298s9-237 11-190c3 83 3 83 10 30 4-42 7-49 12-30 6 24 24 117 32 170l3 25 9-25 8-25 7 25c5 18 8 7 9-35 2-97 18-35 19 76 1 53 4 111 8 130 5 29 7 30 15 14 6-15 7-10 5 18-2 20 1 37 5 37s8 5 8 11c0 5-4 7-10 4s-7 1-4 9c3 9 10 13 15 10s9-1 9 5c0 5 3 17 7 27 5 13 3 15-8 10-8-4-6-1 5 8s15 20 10 28c-4 7-4 10 1 6 4-4 21 10 36 32 16 22 47 52 70 67 74 49 206 42 274-15 19-16 19-16 6 3-7 11 1 4 18-15s29-41 26-48c-2-7-1-11 4-8 12 8 22-20 14-41-4-10-2-14 4-10s13-2 16-13c3-10 2-20-2-22-3-2-3-39 0-83l5-80 2 67c2 62 14 96 24 66 3-7 8 6 11 30 4 23 12 42 17 42 6 0 10-5 10-12 0-6 3-8 7-5 3 4 12 2 20-4 10-9 13-8 13 2 0 8 3 25 7 38 5 18 3 22-7 16s-12-4-6 10c17 45-84 183-162 221-60 29-183 31-257 3-86-32-195-147-195-206 0-8-7-13-16-11-10 2-23 24-32 53-21 65-109 155-168 173-55 16-169 14-221-4zm459-236c-8-8-9-4-5 13 4 13 8 18 11 10 2-7-1-18-6-23zm525-30c-3-8-6-5-6 6-1 11 2 17 5 13 3-3 4-12 1-19zm373 262c0-19 5-20 43-16 23 3 45 5 48 5 4 1 9 8 13 16 4 12-5 15-49 15-49 0-55-2-55-20zm315 10c-7-12 2-12 30 0 19 8 19 9-2 9-12 1-25-3-28-9zm275 0c0-7 13-8 35-4 21 4 35 2 35-4s14-7 41-1c22 5 44 7 49 4s11-1 15 5-26 10-84 10c-57 0-91-4-91-10zm2359-4c-111-31-227-122-282-220-30-54-67-166-66-200 0-20 1-20 9-1 6 13 9-12 9-75 1-139 5-171 34-233 14-30 23-58 19-61-3-3 0-6 7-6s10-4 7-9c-9-14 99-109 151-132 26-12 56-26 65-30 27-14 48-11 48 6 0 18 48 20 85 3 26-12 26-12 3-25-20-11-15-12 47-13 103 0 222 37 266 82 12 13 18 16 14 9-21-37 62 38 101 92 43 58 48 69 45 96-2 7 2 10 9 6 9-5 10-1 6 13-4 12-2 30 4 42 10 19 8 20-52 20h-63l-28-60c-32-69-88-116-177-151-45-17-70-20-140-16-100 5-158 27-218 82-43 38-102 142-102 179 0 18-2 19-11 6-8-11-9-4-5 28 4 29 3 41-4 37-17-11-12 96 5 115 9 10 17 30 18 46s6 34 10 39c5 6 22 34 38 63 33 59 100 113 168 137 67 23 188 20 258-7 32-12 62-21 66-20 5 1 6-1 4-5-2-5 10-19 27-33 17-13 25-17 17-7s-9 17-3 17 23-16 37-35c20-25 25-40 19-57-6-20-5-21 9-10 12 10 16 10 20 0 4-9 6-8 6 3 1 25-28 91-52 117-11 12-17 22-13 22 12 0 56-49 56-63 0-7 18-23 40-36 22-12 40-28 41-34 0-7 4-3 8 8 19 47-89 179-186 228-106 54-266 72-374 43zm1090 0c-102-29-205-106-254-191-37-64-88-236-55-185 7 10 10-23 12-105 2-178 3-186 21-234 9-25 13-49 10-54-3-6-1-7 5-3 11 6 16-6 13-26 0-5 6-8 15-8 10 0 14-6 11-14-7-18 76-97 132-125 22-12 41-18 41-14s5 2 12-5c18-18 49-15 42 3-5 12 2 15 33 15 43 0 90-25 63-33-8-3-22-8-30-10-8-3 23-6 70-6 134-1 242 33 324 101 38 31 116 141 116 162 0 6-5 4-10-4-7-10-10-11-10-2 0 7 7 15 15 18 9 4 13 13 10 24-8 24 5 56 16 39 9-16-1 68-12 96-5 14-8 6-8-27-1-29-6-48-12-48-8 0-9 11-5 31 3 17 7 68 8 113 0 44 3 65 6 46 4-35 4-35 21 11 17 45 17 109 0 109-5 0-6 6-3 13 8 23-63 151-112 201-85 85-200 127-350 125-49 0-110-7-135-13zm268-122c29-8 70-29 90-47 21-17 32-24 24-14-19 24-6 21 18-5 11-11 18-24 16-28-3-5 2-10 10-14 8-3 12-12 9-21-4-10-2-15 7-13s14-5 13-19c0-13 4-23 9-23s7-9 4-20-2-20 3-20c4 0 5-12 2-26-3-18-1-25 6-20 8 4 9-14 5-64-4-46-2-74 6-83 8-10 8-22 2-38-9-22-10-22-11-4-1 12-5 6-11-15-4-19-6-41-4-47 2-7 1-13-4-13s-16-20-25-44c-18-48-97-129-143-148-82-33-236-27-312 12-51 26-108 93-129 152-9 27-20 48-24 48s-4 7-1 17c5 12 3 14-7 8s-12-1-7 23c4 18 3 32-1 32-12 0-8 170 4 178 14 9 35 92 27 106-3 6-3 8 2 4 4-4 21 14 39 40 77 116 215 154 383 106zm-540-366c-3-8-6-5-6 6-1 11 2 17 5 13 3-3 4-12 1-19zm93-373c19-19 32-35 29-35s-20 16-39 35-32 35-29 35 20-16 39-35zm-8 455c0-14 2-19 5-12 2 6 2 18 0 25-3 6-5 1-5-13zm1033 410c-3-5-3-10 2-10 4 0 2-4-5-9-11-7-11-9 2-14 8-3 22 0 30 9 10 10 17 11 22 3 4-8 9-7 15 2 4 7 5 17 3 21-7 11-62 10-69-2zm112-11c4-13 8-18 11-10 2 7-1 18-6 23-8 8-9 4-5-13zm633 7c0-22 17-29 24-10 4 11 10 13 19 6 7-5 21-6 32-1 31 12 33 11 38-16 4-23 4-23 3 2-1 27-3 28-58 31-46 2-58 0-58-12zm550 2c1-22 25-47 51-51 13-2 35-9 49-15 24-10 23-11-12-11-21-1-38 4-38 9 0 6-4 10-10 10-5 0-10-7-10-15 0-13 17-15 113-13l112 3v90l-127 3c-99 2-128 0-128-10zm-5888-18c0-14 2-19 5-12 2 6 2 18 0 25-3 6-5 1-5-13zm-308-150c0-85 2-120 3-77 2 42 2 112 0 155-1 42-3 7-3-78zm4883 117c-4-10-6-105-5-210l1-192 8 140c8 160 6 148 19 140s14 77 1 91c-5 5-11 18-13 29-3 19-4 19-11 2zm-4055-17c0-14 2-19 5-12 2 6 2 18 0 25-3 6-5 1-5-13zm4790-5c0-16 2-22 5-12 2 9 2 23 0 30-3 6-5-1-5-18zm-5312 0c0-8 4-15 10-15 5 0 7 7 4 15-4 8-8 15-10 15s-4-7-4-15zm5611-1c0-11 3-14 6-6 3 7 2 16-1 19-3 4-6-2-5-13zm-7514-1c-4-3-7-16-7-27 0-17-2-18-10-6-7 11-10 4-10-27 0-24 5-43 10-43 6 0 10-13 10-29 0-34 15-49 24-25 3 9 11 12 18 8 10-6 11-4 1 7-7 7-13 38-13 69 0 55-10 86-23 73zm7658-2c-3-5-2-12 3-15s9 1 9 9c0 17-3 19-12 6zm-1042-76c0-44 2-61 4-37 2 23 2 59 0 80-2 20-4 1-4-43zm740 25c0-30 2-43 4-27 2 15 2 39 0 55-2 15-4 2-4-28zm185 43c6-2 18-2 25 0 6 3 1 5-13 5s-19-2-12-5zm80 0c7-3 16-2 19 1 4 3-2 6-13 5-11 0-14-3-6-6zm-7716-290 1-288 7 217c6 199 8 219 26 234 10 8 13 12 6 9-10-5-13 5-11 42 2 50-4 73-22 73-5 0-8-113-7-287zm1831 222c0-33 2-45 4-27s2 45 0 60-4 0-4-33zm5939-20c1-38 3-47 5-25 3 19 9 41 15 48s8 15 4 19c-3 3-6 0-7-8 0-8-4-6-9 6-6 14-8 2-8-40zm-6062 24c0-5 5-7 10-4 6 3 10 8 10 11 0 2-4 4-10 4-5 0-10-5-10-11zm5603-34c0-27 2-38 4-22 2 15 2 37 0 50-2 12-4 0-4-28zm-3971-40c0-16 2-22 5-12 2 9 2 23 0 30-3 6-5-1-5-18zm-1178-155c0-80 2-112 3-72 2 39 2 105 0 145-1 39-3 7-3-73zm3066 96c0-8 4-17 9-20 5-4 7 3 4 14-6 23-13 26-13 6zm2221-2c0-11 3-14 6-6 3 7 2 16-1 19-3 4-6-2-5-13zm0-40c0-11 3-14 6-6 3 7 2 16-1 19-3 4-6-2-5-13zM151 4894c0-11 3-14 6-6 3 7 2 16-1 19-3 4-6-2-5-13zm7122-39c0-33 2-45 4-27s2 45 0 60-4 0-4-33zm-981 25c0-14 2-19 5-12 2 6 2 18 0 25-3 6-5 1-5-13zm1929-6c0-11 3-14 6-6 3 7 2 16-1 19-3 4-6-2-5-13zm-2069-44c0-19 2-27 5-17 2 9 2 25 0 35-3 9-5 1-5-18zm-3518-175c0-99 2-138 3-87 2 51 2 132 0 180-1 48-3 6-3-93zm5928 140c0-16 2-22 5-12 2 9 2 23 0 30-3 6-5-1-5-18zM80 4741c0-41 2-72 5-69 9 9 12 116 4 130-5 8-9-16-9-61zm9071 2c0-12-4-30-7-40-5-17-5-17 6 0 6 10 9 28 7 40-4 22-4 22-6 0zm-9008-78c0-27 2-38 4-22 2 15 2 37 0 50-2 12-4 0-4-28zm8411-35c3-36 3-59 0-52-3 6-10 10-15 6-5-3-9 5-9 16 0 16-4 20-15 16-16-6-24 6-29 40-2 10-8 20-13 21-15 5-26-14-17-28 4-7 8-26 9-43s12-53 25-81c13-27 22-56 21-64-1-7 2-10 7-7s20-7 33-22c24-27 24-27-1-7-23 19-24 19-10 1 24-31 102-76 131-76 15 0 31-4 34-10 10-17 145-12 195 7 25 9 47 20 50 23 13 15 62 40 69 36 10-7 43 28 36 37-3 4-2 5 2 2 12-9 33 17 33 41 0 28-6 30-27 9-30-30-24-6 13 53 21 33 43 58 50 55 13-5 27 24 15 32-5 3-7 15-4 28 2 12-4 4-15-18-27-55-97-142-122-150-11-4-18-10-16-14 5-8-1-9-105-17-108-9-173 12-227 70-23 25-44 56-48 70-3 14-10 26-14 26-5 0-6 10-3 23 4 18 3 19-6 7-10-14-12-13-15 9 0 5-5 13-9 18-5 4-6-21-3-57zm216-260c0-11-5-12-45-12-35 0-37 1-30 12 3 6 22 10 41 10s34-4 34-10zm532 220c0-14 2-19 5-12 2 6 2 18 0 25-3 6-5 1-5-13zm-132-63c0-20 4-38 9-42 6-3 7 10 4 32-8 50-13 55-13 10zm133-32c0-27 2-38 4-22 2 15 2 37 0 50-2 12-4 0-4-28zm-5138-35c7-12 162-12 190 0 13 6-18 9-88 9-70 1-106-3-102-9zm5587-10c13-20 57-40 89-40 27 0 23-20-3-21-22-1-22-1 2-9 23-6 21-8-15-12-22-3 7-5 65-4l105 1v100l-128 3c-126 3-127 2-115-18zm-115-4c-4-10-3-15 3-11 6 3 11 1 11-4 1-6 2-16 3-22 0-6 10-18 22-25 31-21 28 5-6 46-23 28-28 30-33 16zm-4152-106c3-5 8-10 11-10 2 0 4 5 4 10 0 6-5 10-11 10-5 0-7-4-4-10zm1063 3c7-3 16-2 19 1 4 3-2 6-13 5-11 0-14-3-6-6zm-1020-10c7-3 16-2 19 1 4 3-2 6-13 5-11 0-14-3-6-6z"/></g></svg></g></svg>