<svg width="134" height="40" viewBox="0 0 134 40" fill="none" xmlns="http://www.w3.org/2000/svg">
<path d="M39.9131 16.9528C39.8305 16.9528 39.7591 16.9427 39.6986 16.9219C39.6379 16.901 39.5877 16.8778 39.5479 16.852C39.5015 16.8225 39.4621 16.788 39.4299 16.7494L39.575 16.6037C39.5955 16.6319 39.6226 16.6578 39.6561 16.6812C39.6844 16.7007 39.7198 16.7183 39.7623 16.7347C39.8046 16.7509 39.8551 16.7589 39.9131 16.7589C39.9568 16.7589 39.9954 16.7533 40.0289 16.7424C40.0624 16.7314 40.0908 16.7164 40.1141 16.6976C40.1372 16.6792 40.1545 16.6573 40.1661 16.6327C40.1778 16.6081 40.1834 16.5823 40.1834 16.555C40.1834 16.5174 40.1734 16.4869 40.1527 16.4631C40.1319 16.439 40.1051 16.4185 40.0714 16.4016C40.0379 16.3849 40 16.3707 39.9575 16.3589C39.915 16.3473 39.8711 16.3347 39.8259 16.3212C39.7808 16.3075 39.7373 16.2915 39.6945 16.2725C39.6523 16.2539 39.6141 16.2298 39.5806 16.2008C39.5471 16.1717 39.52 16.1357 39.4996 16.093C39.4789 16.0503 39.4685 15.9972 39.4685 15.9338C39.4685 15.8832 39.4791 15.8353 39.5003 15.7891C39.5216 15.7432 39.5522 15.7029 39.5923 15.668C39.6321 15.6329 39.6807 15.6055 39.738 15.5854C39.7955 15.5652 39.8602 15.5555 39.9325 15.5555C40.002 15.5555 40.0631 15.5645 40.1159 15.5826C40.1688 15.6007 40.2132 15.6207 40.2492 15.6426C40.2917 15.6686 40.328 15.6976 40.3574 15.7302L40.2127 15.8756C40.1919 15.8523 40.168 15.8318 40.1409 15.8134C40.1178 15.7978 40.0886 15.7835 40.053 15.7697C40.0177 15.7563 39.9774 15.7493 39.9325 15.7493C39.8499 15.7493 39.7875 15.7678 39.745 15.8045C39.7025 15.8417 39.6812 15.8846 39.6812 15.9338C39.6812 15.9714 39.6916 16.002 39.712 16.026C39.7327 16.0501 39.7598 16.0703 39.7933 16.0872C39.8267 16.1039 39.8647 16.1181 39.9072 16.1299C39.9497 16.1415 39.9935 16.1541 40.0388 16.1676C40.0838 16.1813 40.1273 16.1975 40.1702 16.2163C40.2127 16.2349 40.2506 16.259 40.2841 16.288C40.3176 16.3171 40.3446 16.3531 40.365 16.3958C40.3858 16.4385 40.3961 16.4916 40.3961 16.555C40.3961 16.6081 40.3847 16.6588 40.3625 16.7074C40.3399 16.756 40.3079 16.7984 40.2666 16.8344C40.2254 16.871 40.1749 16.8995 40.1149 16.9209C40.0551 16.9422 39.9878 16.9528 39.9131 16.9528Z" fill="#2A2825"/>
<path d="M40.5892 15.5749H40.7825L41.2945 16.2345L41.8065 15.5749H41.9999V16.9336H41.7875V15.9336L41.2945 16.5647L40.8019 15.9336V16.9336H40.5892V15.5749Z" fill="#2A2825"/>
<path d="M41.9568 20.5701C41.9437 20.5101 41.9252 20.4514 41.9009 20.3946C41.8284 20.2247 41.7064 20.0739 41.5398 19.9661L38.1913 17.8019C37.726 17.5172 37.474 17.3624 37.5809 17.1525L37.6078 17.1131C37.8844 16.7064 37.8579 16.1641 37.543 15.7865L34.0754 11.6321L34.0851 11.6166L30.587 7.51703C30.2313 7.10062 29.8017 6.75902 29.3229 6.50777C29.0276 6.35268 28.7139 6.23142 28.3866 6.14841L23.4873 4.90943L17.841 3.34336C17.2152 3.13755 16.8418 3.42518 16.5866 3.82946C16.5853 3.83151 16.5667 3.8614 16.5355 3.91178L10.7201 0.152992C10.5534 0.0455594 10.3662 -0.00380168 10.182 0.00046832C9.98813 0.00473831 9.79891 0.0703254 9.63994 0.186811C9.54745 0.25496 9.46431 0.338481 9.39852 0.441132L0.152179 14.8797C-0.133619 15.3258 -0.00508691 15.9202 0.438996 16.2073L6.30762 20.0003C6.40045 20.1285 6.50586 20.3564 6.589 20.5287C6.61671 20.5865 6.6417 20.6377 6.66312 20.6772C7.70039 22.5983 13.0557 32.8068 13.2072 33.0203C13.3223 33.1817 13.1008 37.711 13.1006 38.1985V38.4303C13.1006 38.8588 13.2722 39.247 13.5491 39.5302C13.5524 39.5334 13.5552 39.5372 13.5583 39.5404C13.6996 39.6824 13.8681 39.7973 14.0549 39.8769C14.1017 39.8966 14.1498 39.9142 14.1986 39.9297C14.2963 39.9601 14.3984 39.9815 14.5036 39.992C14.5561 39.9975 14.6092 40.0001 14.6634 40.0001H26.9605C27.0163 40.0001 27.0715 39.9972 27.1261 39.9915C27.7117 39.9297 28.1974 39.5423 28.4097 39.0173C28.4206 38.9898 28.4308 38.9618 28.4403 38.9334C28.4738 38.8347 28.4976 38.7321 28.5109 38.6258C28.5225 38.536 28.5279 38.4441 28.5235 38.3503C28.4993 37.8478 28.4706 37.3996 28.4403 36.9981C28.3235 35.4392 28.1843 34.5968 28.2005 34.1521C28.2018 34.1147 28.2045 34.0803 28.2079 34.0482L31.2589 36.0201C31.5363 36.1994 31.8714 36.2165 32.1535 36.0947C32.2101 36.0705 32.2642 36.0409 32.3155 36.0057C32.4182 35.9352 32.5088 35.8435 32.5801 35.732L41.8266 21.2937C41.9004 21.1781 41.9456 21.0527 41.9658 20.9255C41.9847 20.8068 41.982 20.6862 41.9568 20.5701Z" fill="#2A2825"/>
<path d="M26.9605 38.5698H14.6634C14.5878 38.5698 14.5242 38.5062 14.5242 38.4302V38.199C14.5245 37.4574 14.7413 32.8599 14.6037 32.5604C14.5043 32.3439 9.38543 22.7691 8.29103 20.7024C8.14686 20.43 8.16046 20.1029 8.32486 19.8423L12.5285 13.1737C12.5564 13.1433 12.5885 13.1242 12.6118 13.1227L23.8218 15.4556C23.8882 15.4659 23.933 15.5229 23.9376 15.5989C23.9359 15.7687 23.9342 15.9572 23.932 16.1733C23.9317 16.223 23.9312 16.2657 23.931 16.3132L23.9293 16.4006C23.9448 17.1373 23.6999 17.8229 23.2758 18.2345C23.0695 18.4347 22.8113 18.5638 22.5107 18.6393C22.5075 18.6402 22.5044 18.6409 22.5012 18.6415C22.3007 18.6907 22.0848 18.7204 21.841 18.7158C21.8019 18.7153 21.7682 18.7206 21.7281 18.7186H21.6118L15.361 18.7128C14.9621 18.7177 14.6209 18.9095 14.4249 19.239C14.3465 19.3707 14.3071 19.5181 14.286 19.6699C14.251 19.9271 14.2907 20.2011 14.423 20.4641L14.4211 20.4631L14.4257 20.4711C14.4278 20.4751 14.4285 20.4797 14.4305 20.4836L14.6785 20.9417L17.8635 26.8679C18.2101 27.5129 18.7141 28.057 19.33 28.4504C21.3733 29.7545 25.9459 32.6712 26.7805 33.2041C26.8464 33.2459 26.8762 33.3255 26.8475 33.3986C26.687 33.8086 27.1035 38.1226 27.1035 38.4231C27.1035 38.5018 27.0392 38.5698 26.9605 38.5698ZM1.68471 14.8928L10.0458 1.83706C10.1886 1.61399 10.4844 1.54943 10.7065 1.6929L15.8494 5.01667C15.8296 5.04861 15.5623 5.47902 15.351 5.81959C15.2088 6.0483 14.9074 6.11508 14.6831 5.967L14.2935 5.70994C14.0898 5.57586 13.8135 5.60968 13.6598 5.79961C13.5705 5.91012 13.4747 6.01636 13.372 6.11747C11.8561 7.60309 10.1755 6.86199 9.28801 6.29664C9.06528 6.1547 8.77201 6.21961 8.6297 6.44267L5.45754 11.4181C5.3268 11.6229 5.37321 11.8895 5.55785 12.0468C6.82855 13.13 7.00197 14.969 6.34978 16.442C6.25356 16.6592 6.32938 16.9134 6.52932 17.0406L7.86004 17.8878C7.38739 18.6494 7.17572 18.9905 7.17572 18.9905C7.17215 18.9959 7.1696 19.0009 7.1662 19.0064L1.8282 15.5565C1.60616 15.4129 1.54189 15.1157 1.68471 14.8928ZM8.59111 16.7055L8.19752 16.451C8.0241 16.339 7.94267 16.1291 7.99418 15.9284C8.29647 14.7524 8.28525 13.211 7.17963 11.8099C7.05433 11.6507 7.04481 11.428 7.15396 11.2568L9.15744 8.11702C9.28002 7.92436 9.51991 7.84494 9.73209 7.92846C10.6145 8.27604 12.3594 8.82721 14.1442 7.21025L14.3897 7.36858C12.6185 10.2218 10.1304 14.2255 8.59111 16.7055ZM17.5996 4.86568C17.6394 4.80043 17.7172 4.76952 17.7907 4.79019L22.0127 5.96136C22.1222 5.99142 22.1722 6.11815 22.1137 6.21551L18.1708 12.7614C18.152 12.7925 18.1158 12.8086 18.0802 12.801L13.475 11.8428C13.417 11.8306 13.3885 11.7643 13.4194 11.7137L17.5996 4.86568ZM23.5767 6.50963C23.6155 6.44506 23.692 6.4133 23.7651 6.43191L27.9464 7.49002C28.059 7.51854 28.111 7.64937 28.0491 7.7481L24.1247 14.003C24.1054 14.0332 24.0718 14.0489 24.0366 14.0414C23.5279 13.9358 19.7375 13.1461 19.7375 13.1461C19.6803 13.1341 19.6515 13.0683 19.6818 13.0178L23.5767 6.50963ZM29.2585 8.50303C29.3197 8.40516 29.4577 8.39509 29.5325 8.48254L32.2443 11.6582C32.2927 11.7149 32.299 11.7966 32.2598 11.8601L28.3535 18.1949C28.0088 18.6991 27.7844 18.9365 26.8538 18.4248L25.3911 17.5166C25.3661 17.5011 25.3506 17.4769 25.3505 17.4473C25.3462 16.739 25.3646 15.2503 25.3761 14.7106C25.3765 14.695 25.3809 14.6821 25.3894 14.6686L29.2585 8.50303ZM33.45 13.0738L36.2361 16.4121C36.2852 16.4708 36.2891 16.5557 36.2461 16.6191L35.1431 18.2383C34.845 18.6996 34.2245 18.8354 33.7624 18.5443L31.062 16.8416C30.9824 16.7914 30.9581 16.686 31.0076 16.6061L33.1738 13.0938C33.2351 12.9946 33.3754 12.9843 33.45 13.0738ZM17.8266 22.6102C17.2055 22.2186 16.6953 21.6732 16.345 21.0262L16.0043 20.3972C15.9421 20.2827 16.0247 20.1435 16.1543 20.1435L17.2155 20.1442C18.1028 22.1769 20.1243 23.601 22.4714 23.601C24.8241 23.601 26.8493 22.1708 27.7336 20.1309C28.18 20.1205 28.583 19.9628 28.9502 19.6523C29.1592 19.4754 29.3574 19.2521 29.5456 18.9765L30.1074 18.0654C30.1475 18.0007 30.2321 17.9809 30.2964 18.0214L30.9933 18.4608L34.0123 20.4122C34.0393 20.4317 34.0662 20.4508 34.0876 20.4664C34.0794 20.576 34.0691 20.6853 34.0675 20.796C34.0611 21.3265 34.1347 21.8449 34.2804 22.339C34.4268 22.8357 34.6483 23.3061 34.937 23.7394C35.0147 23.8557 35.0978 23.9684 35.1861 24.0786C35.3141 24.2385 35.325 24.4631 35.2141 24.6358L33.2737 27.6657C33.158 27.8468 32.9369 27.9264 32.7319 27.8639C32.6275 27.8323 32.5221 27.8036 32.4153 27.7792C32.0585 27.6972 31.6917 27.6495 31.3172 27.6449C31.2958 27.6446 31.2742 27.6446 31.2524 27.6446C31.1589 27.6446 31.0671 27.6531 30.9746 27.6581C29.9231 27.7141 28.93 28.0851 28.1025 28.7288C27.947 28.8501 27.731 28.8554 27.5644 28.7502L25.1572 27.2324L24.3385 26.7035L24.3326 26.7125L17.8266 22.6102ZM24.6114 18.8607C24.6539 18.8023 24.7328 18.7855 24.794 18.8236L26.1373 19.6605C26.2293 19.7111 26.3172 19.751 26.4058 19.7934C26.4103 19.7956 26.4146 19.7972 26.4188 19.799C25.697 21.2589 24.201 22.2671 22.4714 22.2671C20.8824 22.2671 19.4915 21.4155 18.7154 20.1456L21.6885 20.148C22.1827 20.1734 22.644 20.115 23.0636 19.9791C23.5189 19.8318 23.9249 19.5934 24.2653 19.2627C24.3917 19.1403 24.5062 19.0048 24.6114 18.8607ZM31.9332 34.336C31.7902 34.5591 31.4943 34.6236 31.2723 34.4801L28.0024 32.3668C27.1035 31.8114 20.455 27.4635 20.455 27.4635C19.8339 27.072 19.3239 26.5268 18.9737 25.8799L18.4238 24.8651C18.3818 24.7876 18.4697 24.7042 18.5444 24.7512L27.6683 30.5039C27.8718 30.6322 28.1338 30.5799 28.2853 30.3926C28.3745 30.2822 28.4703 30.176 28.5733 30.075C29.2957 29.3667 30.2457 28.9787 31.2529 28.9787C31.2689 28.9787 31.2851 28.9787 31.301 28.9788C31.9588 28.9869 32.5877 29.1621 33.1438 29.4805C33.3669 29.6082 33.6481 29.5471 33.7874 29.3302C34.4977 28.2232 36.4289 25.2149 36.4308 25.216L36.898 24.4866C37.0309 24.2791 36.9956 23.9995 36.8046 23.8439C36.694 23.7537 36.5875 23.6569 36.4865 23.5529C35.7706 22.8154 35.3831 21.8425 35.3954 20.8124C35.3966 20.7133 35.4051 20.6163 35.4136 20.5195C35.4136 20.5195 36.0953 19.4293 36.4836 18.8175C36.6259 18.5932 36.9218 18.5293 37.1443 18.6731L40.1509 20.6163C40.3729 20.7598 40.4369 21.057 40.2941 21.2801L31.9332 34.336ZM28.2079 34.0482L31.2589 36.0201C31.7028 36.3072 32.2946 36.1781 32.5801 35.7319L41.8266 21.2937C42.112 20.8476 41.9838 20.2532 41.5398 19.9661L38.1913 17.8019C37.726 17.5172 37.474 17.3628 37.5809 17.1525L37.6078 17.113C37.8844 16.7064 37.8579 16.1641 37.543 15.7864L34.0754 11.6321L34.0851 11.6165L30.587 7.517C30.2313 7.10059 29.8017 6.75899 29.3227 6.50775C29.0276 6.35266 28.7139 6.23139 28.3866 6.14839L23.4873 4.9094L17.841 3.34334C17.2152 3.13753 16.8418 3.42515 16.5866 3.82961C16.5853 3.83149 16.5667 3.86138 16.5355 3.9121L10.7201 0.152971C10.276 -0.134143 9.68432 -0.00501831 9.39852 0.441111L0.152179 14.8797C-0.133619 15.3258 -0.00508691 15.9202 0.438996 16.2073L6.30762 20.0002C6.43156 20.1716 6.57761 20.5191 6.66312 20.6771C7.70039 22.5983 13.0556 32.8068 13.2072 33.0203C13.3223 33.1817 13.1008 37.711 13.1005 38.1985V38.4302C13.1005 39.2974 13.8002 40 14.6634 40H26.9605C27.8545 40 28.5667 39.2472 28.5235 38.3503C28.3975 35.7348 28.1494 34.5585 28.2079 34.0482Z" fill="#2A2825"/>
<path d="M41.5398 19.966L38.1913 17.8018C37.726 17.5171 37.474 17.3627 37.5809 17.1525L37.6078 17.113C37.8844 16.7063 37.8579 16.164 37.543 15.7864L34.0754 11.632L34.0851 11.6165L30.587 7.51696C30.2313 7.10055 29.8017 6.75895 29.3227 6.5077C29.0276 6.35261 28.7139 6.23135 28.3866 6.14834L23.4873 4.90935L17.841 3.34329C17.2152 3.13748 16.8418 3.4251 16.5866 3.82956C16.5853 3.83144 16.5667 3.86133 16.5355 3.91205L10.7201 0.152922C10.276 -0.134192 9.68432 -0.00523809 9.39852 0.441062L0.152179 14.8796C-0.133619 15.3258 -0.00508691 15.9201 0.438996 16.2072L6.30762 20.0002C6.43156 20.1712 6.57761 20.5191 6.66312 20.6771C7.70039 22.5982 13.0556 32.8068 13.2072 33.0203C13.3223 33.1817 13.1008 37.7109 13.1005 38.1984V38.4302C13.1005 39.2973 13.8002 40 14.6634 40H26.9605C27.8545 40 28.5667 39.2471 28.5235 38.3502C28.3975 35.7348 28.1494 34.5585 28.2079 34.0481L31.2589 36.02C31.7028 36.3071 32.2946 36.178 32.5801 35.7319L41.8266 21.2937C42.112 20.8475 41.9838 20.2532 41.5398 19.966Z" fill="#2A2825"/>
<path d="M40.2941 21.28L31.9332 34.3359C31.7902 34.559 31.4943 34.6236 31.2723 34.4801L28.0024 32.3668C27.1035 31.8113 20.455 27.4635 20.455 27.4635C19.8339 27.072 19.3239 26.5268 18.9737 25.8798L18.4238 24.8651C18.3818 24.7875 18.4697 24.7045 18.5444 24.7512L27.6683 30.5039C27.8718 30.6318 28.1338 30.5799 28.2853 30.3925C28.3745 30.2822 28.4703 30.1759 28.5733 30.075C29.2957 29.3667 30.2457 28.9786 31.2529 28.9786C31.2689 28.9786 31.2851 28.9786 31.301 28.9788C31.9588 28.9868 32.5877 29.1621 33.1438 29.4804C33.3669 29.6082 33.6481 29.5471 33.7874 29.3301C34.498 28.2232 36.4289 25.2149 36.4308 25.2159L36.898 24.4866C37.0309 24.2791 36.9956 23.9995 36.8046 23.8439C36.694 23.7537 36.5875 23.6569 36.4865 23.5528C35.7706 22.8153 35.3831 21.8424 35.3954 20.8123C35.3966 20.7133 35.4051 20.6163 35.4136 20.5194C35.4136 20.5194 36.0953 19.4292 36.4836 18.8174C36.6259 18.5931 36.9218 18.5293 37.1443 18.6731L40.1509 20.6163C40.3729 20.7597 40.4369 21.0569 40.2941 21.28ZM26.9605 38.5697H14.6634C14.5878 38.5697 14.5242 38.5062 14.5242 38.4302V38.1989C14.5245 37.4573 14.7413 32.8599 14.6037 32.5603C14.5043 32.3439 9.38543 22.769 8.29103 20.7024C8.14686 20.4299 8.16046 20.1028 8.32486 19.8422L12.5285 13.1737C12.5564 13.1433 12.5885 13.1241 12.6118 13.1226L23.8218 15.4556C23.8882 15.4658 23.933 15.5229 23.9376 15.5989C23.9359 15.7686 23.9342 15.9572 23.932 16.1733C23.9317 16.223 23.9312 16.2657 23.931 16.3131L23.9293 16.4006C23.9448 17.1373 23.6999 17.8228 23.2758 18.2345C23.0695 18.4346 22.8113 18.5638 22.5107 18.6393C22.5075 18.6401 22.5044 18.6408 22.5012 18.6415C22.3007 18.6907 22.0848 18.7204 21.841 18.7158C21.8019 18.7153 21.7682 18.7206 21.7281 18.7185H21.6118L15.361 18.7127C14.9621 18.7177 14.6209 18.9095 14.4249 19.2389C14.3465 19.3706 14.3071 19.518 14.286 19.6699C14.251 19.9271 14.2907 20.2011 14.423 20.4641L14.4211 20.4631L14.4257 20.4711C14.4278 20.475 14.4285 20.4796 14.4305 20.4836L14.6785 20.9416L17.8635 26.8679C18.2101 27.5128 18.7141 28.057 19.33 28.4503C21.3733 29.7544 25.9459 32.6712 26.7805 33.204C26.8464 33.2459 26.8762 33.3255 26.8475 33.3986C26.687 33.8085 27.1035 38.1226 27.1035 38.423C27.1035 38.5017 27.0392 38.5697 26.9605 38.5697ZM7.99418 15.9283C8.29647 14.7524 8.28525 13.2109 7.17963 11.8098C7.05433 11.6507 7.04481 11.4279 7.15396 11.2568L9.15744 8.11697C9.28002 7.92431 9.51991 7.84489 9.73209 7.92841C10.6145 8.27599 12.3594 8.82716 14.1442 7.2102L14.3897 7.36853C12.6185 10.2217 10.1304 14.2255 8.59111 16.7055L8.19752 16.4513C8.0241 16.3389 7.94267 16.129 7.99418 15.9283ZM7.17572 18.9904C7.17215 18.9959 7.1696 19.0008 7.1662 19.0063L1.8282 15.5565C1.60616 15.4129 1.54189 15.1157 1.68471 14.8928L10.0458 1.83701C10.1886 1.61394 10.4844 1.54938 10.7065 1.69285L15.8494 5.01662C15.8296 5.04856 15.5623 5.47897 15.351 5.81955C15.2088 6.04825 14.9074 6.11469 14.6831 5.96695L14.2935 5.70989C14.0898 5.57582 13.8135 5.60963 13.6598 5.79956C13.5705 5.91007 13.4747 6.01631 13.372 6.11742C11.8561 7.60304 10.1755 6.86194 9.28801 6.29659C9.06528 6.15466 8.77201 6.21973 8.6297 6.44262L5.45754 11.418C5.3268 11.6228 5.37321 11.8894 5.55785 12.0467C6.82855 13.1299 7.00197 14.969 6.34978 16.4419C6.25356 16.6592 6.32938 16.9133 6.52932 17.0406L7.86004 17.8877C7.38739 18.6493 7.17572 18.9904 7.17572 18.9904ZM17.5996 4.86563C17.6394 4.80038 17.7172 4.76947 17.7907 4.79014L22.0127 5.96131C22.1222 5.99137 22.1722 6.1181 22.1137 6.21546L18.1708 12.7614C18.152 12.7924 18.1158 12.8085 18.0802 12.801L13.475 11.8428C13.417 11.8305 13.3885 11.7642 13.4194 11.7137L17.5996 4.86563ZM23.5767 6.50958C23.6155 6.44502 23.692 6.41325 23.7651 6.43186L27.9464 7.48997C28.059 7.51849 28.111 7.64932 28.0491 7.74805L24.1247 14.0029C24.1054 14.0331 24.0718 14.0489 24.0366 14.0413C23.5279 13.9358 19.7375 13.146 19.7375 13.146C19.6803 13.134 19.6515 13.0683 19.6818 13.0177L23.5767 6.50958ZM29.2585 8.50298C29.3197 8.40511 29.4577 8.39504 29.5325 8.48249L32.2443 11.6582C32.2927 11.7149 32.299 11.7965 32.2598 11.8601L28.3535 18.1948C28.0088 18.699 27.7844 18.9365 26.8538 18.4247L25.3911 17.5166C25.3661 17.5011 25.3506 17.4768 25.3505 17.4473C25.3462 16.7389 25.3646 15.2503 25.3761 14.7105C25.3765 14.695 25.3809 14.682 25.3894 14.6685L29.2585 8.50298ZM18.7154 20.1455L21.6885 20.1479C22.1827 20.1734 22.644 20.115 23.0636 19.979C23.5189 19.8318 23.9249 19.5934 24.2653 19.2627C24.3917 19.1402 24.5062 19.0048 24.6114 18.8606C24.6539 18.8022 24.7328 18.7855 24.794 18.8236L26.1373 19.6605C26.2293 19.711 26.3172 19.751 26.4058 19.7934C26.4103 19.7956 26.4146 19.7971 26.4188 19.799C25.697 21.2588 24.201 22.2671 22.4714 22.2671C20.8824 22.2671 19.4915 21.4154 18.7154 20.1455ZM22.4714 23.601C24.8241 23.601 26.8493 22.1707 27.7336 20.1309C28.18 20.1204 28.583 19.9628 28.9502 19.6523C29.1592 19.4753 29.3574 19.2521 29.5456 18.9764L30.1074 18.0654C30.1475 18.0006 30.2321 17.9808 30.2964 18.0213L30.9933 18.4608L34.0123 20.4122C34.0393 20.4316 34.0662 20.4508 34.0876 20.4663C34.0794 20.576 34.0691 20.6853 34.0675 20.796C34.0611 21.3265 34.1347 21.8448 34.2804 22.339C34.4268 22.8356 34.6483 23.306 34.937 23.7393C35.0147 23.8557 35.0978 23.9684 35.1861 24.0786C35.3141 24.2384 35.325 24.4629 35.2141 24.6357L33.2737 27.6657C33.158 27.8466 32.9369 27.9263 32.7319 27.8638C32.6275 27.8322 32.5221 27.8035 32.4153 27.7791C32.0585 27.6971 31.6917 27.6495 31.3172 27.6449C31.2958 27.6445 31.2742 27.6445 31.2524 27.6445C31.1589 27.6445 31.0671 27.6531 30.9746 27.658C29.9231 27.714 28.93 28.085 28.1025 28.7288C27.947 28.85 27.731 28.8553 27.5644 28.7501L25.1572 27.2324L24.3385 26.7034L24.3326 26.7125L17.8266 22.6102C17.2057 22.2185 16.6953 21.6732 16.345 21.0262L16.0043 20.3971C15.9421 20.2827 16.0247 20.1432 16.1543 20.1435L17.2155 20.1442C18.1028 22.1769 20.1243 23.601 22.4714 23.601ZM33.45 13.0738L36.2361 16.412C36.2852 16.4708 36.2891 16.5557 36.2461 16.619L35.1431 18.2382C34.845 18.6996 34.2245 18.8353 33.7624 18.5443L31.062 16.8416C30.9824 16.7914 30.9581 16.686 31.0076 16.6061L33.1738 13.0937C33.2351 12.9945 33.3754 12.9843 33.45 13.0738ZM41.5398 19.966L38.1913 17.8018C37.726 17.5171 37.474 17.3627 37.5809 17.1525L37.6078 17.113C37.8844 16.7063 37.8579 16.164 37.543 15.7864L34.0754 11.632L34.0851 11.6165L30.587 7.51696C30.2313 7.10055 29.8017 6.75895 29.3227 6.5077C29.0276 6.35261 28.7139 6.23135 28.3866 6.14834L23.4873 4.90935L17.841 3.34329C17.2152 3.13748 16.8418 3.4251 16.5866 3.82956C16.5853 3.83144 16.5667 3.86133 16.5355 3.91205L10.7201 0.152922C10.276 -0.134192 9.68432 -0.00523809 9.39852 0.441062L0.152179 14.8796C-0.133619 15.3258 -0.00508691 15.9201 0.438996 16.2072L6.30762 20.0002C6.43156 20.1712 6.57761 20.5191 6.66312 20.6771C7.70039 22.5982 13.0556 32.8068 13.2072 33.0203C13.3223 33.1817 13.1008 37.7109 13.1005 38.1984V38.4302C13.1005 39.2973 13.8002 40 14.6634 40H26.9605C27.8545 40 28.5667 39.2471 28.5235 38.3502C28.3975 35.7348 28.1494 34.5585 28.2079 34.0481L31.2589 36.02C31.7028 36.3071 32.2946 36.178 32.5801 35.7319L41.8266 21.2937C42.112 20.8475 41.9838 20.2532 41.5398 19.966Z" fill="#2A2825"/>
<path d="M26.419 19.799C26.4148 19.7972 26.4105 19.7956 26.4059 19.7934C26.3173 19.751 26.2294 19.7111 26.1375 19.6605L24.7942 18.8236C24.733 18.7855 24.6541 18.8022 24.6116 18.8607C24.5063 19.0048 24.3919 19.1403 24.2654 19.2627C23.925 19.5934 23.519 19.8318 23.0637 19.9791C22.6441 20.1148 22.1829 20.1734 21.6887 20.148L18.7156 20.1456C19.4917 21.4155 20.8826 22.2671 22.4716 22.2671C24.2012 22.2671 25.6971 21.2589 26.419 19.799Z" fill="#12BA7B"/>
<path d="M25.3759 14.7105C25.3643 15.2503 25.346 16.7389 25.3502 17.4473C25.3504 17.4768 25.3659 17.5011 25.3909 17.5166L26.8535 18.4247C27.7842 18.9365 28.0086 18.699 28.3532 18.1948L32.2595 11.8601C32.2988 11.7965 32.2925 11.7149 32.2441 11.6582L29.5325 8.48249C29.4575 8.39487 29.3194 8.40511 29.2584 8.50298L25.3892 14.6685C25.3807 14.6818 25.3762 14.695 25.3759 14.7105Z" fill="white"/>
<path d="M31.062 16.8416L33.7623 18.5443C34.2244 18.8354 34.845 18.6996 35.143 18.2383L36.2461 16.6191C36.2891 16.5557 36.2852 16.4708 36.2361 16.4121L33.45 13.0738C33.3754 12.9843 33.2351 12.9945 33.1737 13.0938L31.0076 16.6061C30.9581 16.686 30.9824 16.7914 31.062 16.8416Z" fill="white"/>
<path d="M17.2153 20.1442L16.1541 20.1435C16.0245 20.1431 15.9419 20.2827 16.0041 20.3971L16.3448 21.0262C16.6951 21.6732 17.2054 22.2185 17.8263 22.6102L24.3324 26.7124L24.3385 26.7034L25.1569 27.2324L27.5642 28.7501C27.7308 28.8553 27.9467 28.85 28.1023 28.7287C28.9298 28.085 29.9228 27.7138 30.9744 27.6578C31.0669 27.653 31.1587 27.6445 31.2522 27.6445C31.274 27.6445 31.2956 27.6445 31.317 27.6448C31.6915 27.6493 32.0582 27.6971 32.4151 27.7791C32.5219 27.8035 32.6273 27.832 32.7317 27.8638C32.9367 27.9263 33.1577 27.8465 33.2735 27.6657L35.2139 24.6357C35.3248 24.4628 35.3139 24.2384 35.1859 24.0785C35.0976 23.9684 35.0145 23.8556 34.9368 23.7393C34.6481 23.306 34.4266 22.8356 34.2802 22.3388C34.1345 21.8448 34.0609 21.3264 34.0673 20.7959C34.0689 20.6853 34.0792 20.5759 34.0874 20.4663C34.066 20.4507 34.0391 20.4316 34.0121 20.4121L30.9931 18.4608L30.2962 18.0213C30.2319 17.9808 30.1473 18.0005 30.1071 18.0654L29.5454 18.9764C29.3572 19.2521 29.159 19.4753 28.95 19.6523C28.5828 19.9628 28.1798 20.1204 27.7334 20.1308C26.8491 22.1707 24.8239 23.601 22.4712 23.601C20.1241 23.601 18.1026 22.1768 17.2153 20.1442Z" fill="#80E2B8"/>
<path d="M19.7375 13.146C19.7375 13.146 23.5279 13.9358 24.0366 14.0414C24.0718 14.0489 24.1054 14.0332 24.1246 14.0029L28.0491 7.74806C28.111 7.64934 28.059 7.51851 27.9464 7.48999L23.7651 6.43188C23.692 6.41326 23.6154 6.44503 23.5767 6.50959L19.6818 13.0177C19.6515 13.0683 19.6802 13.1341 19.7375 13.146Z" fill="white"/>
<path d="M40.1507 20.6162L37.1442 18.6731C36.9216 18.5292 36.6258 18.5931 36.4835 18.8174C36.0952 19.4292 35.4134 20.5192 35.4134 20.5192C35.4049 20.6162 35.3964 20.7133 35.3952 20.8123C35.383 21.8424 35.7704 22.8153 36.4864 23.5528C36.5874 23.6568 36.6938 23.7537 36.8045 23.8439C36.9954 23.9993 37.0308 24.2789 36.8978 24.4866L36.4306 25.2159C36.4287 25.2149 34.4979 28.2232 33.7872 29.3301C33.6479 29.547 33.3667 29.6082 33.1437 29.4804C32.5876 29.162 31.9587 28.9868 31.3009 28.9788C31.2849 28.9784 31.2687 28.9784 31.2528 28.9784C30.2456 28.9784 29.2955 29.3667 28.5731 30.075C28.4701 30.1759 28.3744 30.2822 28.2851 30.3925C28.1336 30.5799 27.8716 30.6318 27.6681 30.5038L18.5442 24.7511C18.4696 24.7045 18.3817 24.7875 18.4237 24.8651L18.9735 25.8798C19.3237 26.5268 19.834 27.072 20.4549 27.4634C20.4549 27.4634 27.1033 31.8113 28.0022 32.3668L31.2721 34.4801C31.4942 34.6235 31.79 34.559 31.933 34.3359L40.2939 21.28C40.4367 21.0569 40.3728 20.7597 40.1507 20.6162Z" fill="#12BA7B"/>
<path d="M26.8473 33.3984C26.876 33.3253 26.8462 33.2459 26.7803 33.204C25.9457 32.6711 21.3731 29.7544 19.3298 28.4503C18.7139 28.057 18.2099 27.5128 17.8633 26.8679L14.6783 20.9416L14.4303 20.4835C14.4282 20.4796 14.4276 20.475 14.4255 20.4711L14.4209 20.463L14.4228 20.4641C14.2905 20.201 14.2508 19.9271 14.2858 19.6698C14.3069 19.518 14.3463 19.3704 14.4247 19.2389C14.6207 18.9094 14.9619 18.7176 15.3608 18.7125L21.6116 18.7185H21.7279C21.768 18.7205 21.8017 18.7152 21.8408 18.7158C22.0846 18.7204 22.3005 18.6907 22.501 18.6413C22.5042 18.6408 22.5073 18.6401 22.5105 18.6392C22.8111 18.5637 23.0693 18.4346 23.2756 18.2344C23.6997 17.8228 23.9446 17.1372 23.9291 16.4006L23.9308 16.3131C23.931 16.2656 23.9315 16.2229 23.9318 16.1732C23.934 15.9572 23.9357 15.7686 23.9374 15.5988C23.9328 15.5228 23.888 15.4658 23.8216 15.4555L12.6116 13.1224C12.5883 13.1241 12.5562 13.1432 12.5283 13.1736L8.32466 19.8422C8.16026 20.1028 8.14665 20.4299 8.29083 20.7023C9.38522 22.7688 14.5041 32.3439 14.6035 32.5603C14.7411 32.8599 14.5243 37.4571 14.524 38.1989V38.4302C14.524 38.5062 14.5876 38.5697 14.6632 38.5697H26.9603C27.039 38.5697 27.1033 38.5017 27.1033 38.423C27.1033 38.1225 26.6868 33.8085 26.8473 33.3984Z" fill="white"/>
<path d="M8.59097 16.7054C10.1303 14.2254 12.6183 10.2217 14.3896 7.36851L14.144 7.21017C12.3592 8.82714 10.6143 8.27596 9.73195 7.92839C9.51977 7.84487 9.27988 7.92429 9.1573 8.11695L7.15383 11.2568C7.04468 11.4279 7.0542 11.6506 7.1795 11.8098C8.28511 13.2109 8.29634 14.7524 7.99405 15.9283C7.94253 16.129 8.02397 16.3389 8.19739 16.4513L8.59097 16.7054Z" fill="#80E2B8"/>
<path d="M6.34981 16.4419C7.00199 14.969 6.82857 13.13 5.55787 12.0467C5.37323 11.8894 5.32682 11.6228 5.45756 11.418L8.62973 6.44263C8.77203 6.21974 9.06531 6.15466 9.28803 6.2966C10.1755 6.86195 11.8561 7.60305 13.372 6.11743C13.4747 6.01632 13.5706 5.91008 13.6598 5.79957C13.8137 5.60964 14.0898 5.57582 14.2935 5.7099L14.6832 5.96696C14.9074 6.1147 15.2088 6.04826 15.351 5.81956C15.5623 5.47898 15.8296 5.04857 15.8495 5.01663L10.7065 1.69286C10.4844 1.54939 10.1886 1.61395 10.0458 1.83702L1.68473 14.8928C1.54192 15.1157 1.60618 15.4129 1.82822 15.5565L7.16623 19.0063C7.16963 19.0009 7.17218 18.9959 7.17575 18.9904C7.17575 18.9904 7.38742 18.6494 7.86006 17.8878L6.52935 17.0406C6.32941 16.9133 6.25358 16.6592 6.34981 16.4419Z" fill="#12BA7B"/>
<path d="M13.4749 11.8426L18.0801 12.801C18.1156 12.8085 18.1518 12.7924 18.1707 12.7613L22.1136 6.21543C22.1721 6.11807 22.1221 5.99134 22.0126 5.96128L17.7906 4.78993C17.7171 4.76944 17.6392 4.80035 17.5995 4.8656L13.4193 11.7135C13.3883 11.7642 13.4169 11.8305 13.4749 11.8426Z" fill="white"/>
<path d="M133.208 1.09701C131.517 0.353758 128.709 0 126.262 0C119.459 0 115.824 2.61857 115.824 7.71467C115.824 10.9348 117.228 12.4922 119.531 14.1554L120.143 14.6156C121.907 15.8185 122.879 16.2432 122.879 17.482C122.879 18.5082 122.195 19.0747 120.359 19.0747C117.228 19.0747 115.392 17.411 114.636 17.411C114.241 17.411 114.025 17.6234 113.881 18.1898C113.736 18.7912 112.981 21.9408 112.981 22.5779C112.981 23.2856 113.449 23.4978 114.312 23.7813C116.004 24.3118 117.732 24.6657 120.539 24.6657C128.529 24.6657 131.805 21.7638 131.805 16.5616C131.805 13.7308 130.833 12.0673 128.601 10.4396L127.774 9.80252C125.974 8.49297 124.57 7.92686 124.57 6.79462C124.57 5.87458 125.47 5.627 126.802 5.627C129.681 5.627 131.301 7.25456 132.236 7.25456C132.776 7.25456 132.884 6.9362 132.992 6.58192C133.316 5.59143 134 2.65397 134 2.19403C134 1.62774 133.856 1.37999 133.208 1.09701Z" fill="#12BA7B"/>
<path d="M58.7051 9.76717H58.0935C57.6256 9.76717 57.4814 9.62559 57.4814 9.37801C57.4814 9.16565 57.5536 8.81155 57.6972 8.2456L58.2733 5.73286C58.3813 5.27275 58.5613 5.06056 58.9934 5.06056H59.5332C60.6131 5.06056 61.5127 5.30832 61.5127 6.90067C61.5127 8.67015 60.4689 9.76717 58.7051 9.76717ZM56.5095 19.6054H55.7901C55.43 19.6054 55.3218 19.4991 55.3218 19.2869C55.3218 19.1099 55.3938 18.8268 55.4658 18.4728L56.2575 14.8985C56.3299 14.5093 56.4737 14.4384 56.7978 14.4384H57.6614C58.9213 14.4384 59.857 15.0048 59.857 16.668C59.857 18.4728 58.6691 19.6054 56.5095 19.6054ZM62.4126 0.530762H51.7589C51.2189 0.530762 50.967 0.67216 50.8588 1.16784L46.3241 21.8349C46.18 22.5073 46 23.2856 46 23.4978C46 23.9227 46.2881 24.1352 46.8639 24.1352H57.9136C64.3198 24.1352 68.4593 21.9053 68.4593 16.9159C68.4593 13.5893 65.7955 12.5983 64.4638 12.3153C64.104 12.2447 63.9962 12.1382 63.9962 11.9614C63.9962 11.8196 64.1399 11.749 64.4278 11.6782C66.5874 11.2183 69.7188 9.94413 69.7188 5.5559C69.7188 1.98136 67.4154 0.530762 62.4126 0.530762Z" fill="#12BA7B"/>
<path d="M100.995 19.0747C97.8639 19.0747 96.0287 17.411 95.2726 17.411C94.8768 17.411 94.661 17.6234 94.5172 18.1898C94.3726 18.7912 93.6172 21.9408 93.6172 22.5779C93.6172 23.2856 94.0849 23.4978 94.9488 23.7813C96.6402 24.3118 98.3681 24.6657 101.175 24.6657C109.165 24.6657 112.441 21.7638 112.441 16.5616C112.441 13.7308 111.469 12.0673 109.238 10.4396L108.41 9.80252C106.61 8.49297 105.206 7.92686 105.206 6.79462C105.206 5.87458 106.106 5.627 107.438 5.627C110.317 5.627 111.937 7.25456 112.873 7.25456C113.412 7.25456 113.52 6.9362 113.629 6.58192C113.952 5.59143 114.636 2.65397 114.636 2.19403C114.636 1.62774 114.492 1.37999 113.844 1.09701C112.153 0.353758 109.345 0 106.898 0C100.095 0 96.4604 2.61857 96.4604 7.71467C96.4604 10.9348 97.8639 12.4922 100.167 14.1554L100.779 14.6156C102.543 15.8185 103.515 16.2432 103.515 17.482C103.515 18.5082 102.831 19.0747 100.995 19.0747Z" fill="#12BA7B"/>
<path d="M81.2359 18.5084C79.3281 18.5084 78.9683 16.7741 78.9683 15.111C78.9683 11.3246 80.5518 6.12198 83.8273 6.12198C85.8069 6.12198 86.1307 8.03321 86.1307 9.41337C86.1307 13.2705 84.6192 18.5084 81.2359 18.5084ZM84.7992 0C74.8294 0 69.8623 6.90063 69.8623 15.5709C69.8623 21.7994 74.0017 24.6657 80.3 24.6657C90.4497 24.6657 94.9848 17.411 94.9848 9.2364C94.9848 3.04312 91.2775 0 84.7992 0Z" fill="#12BA7B"/>
<path d="M60.8487 39.729H63.5287C63.7673 39.729 63.8775 39.6388 63.8775 39.3862V28.0522C63.8775 27.8175 63.7489 27.6915 63.5287 27.6915H58.9949C58.7747 27.6915 58.6462 27.7637 58.5728 28.0883L56.5355 36.3C56.4986 36.4263 56.4805 36.4801 56.3885 36.4801C56.2968 36.4801 56.2599 36.4263 56.2419 36.3L54.3145 28.1245C54.2409 27.7994 54.0941 27.6915 53.782 27.6915H49.2486C48.9915 27.6915 48.8815 27.8175 48.8815 28.0522V39.404C48.8815 39.6566 49.01 39.729 49.2302 39.729H51.2125C51.451 39.729 51.5611 39.6566 51.5611 39.404V31.1383C51.5611 31.0301 51.5795 30.9761 51.6712 30.9761C51.7447 30.9761 51.7815 31.0481 51.8182 31.1566L53.7089 38.6099C53.9657 39.6566 54.1125 39.729 54.8837 39.729H57.1962C57.9486 39.729 58.0959 39.6566 58.3525 38.6099L60.2617 31.1205C60.2798 31.0301 60.3167 30.9761 60.3901 30.9761C60.4632 30.9761 60.5001 31.0119 60.5001 31.1205V39.3862C60.5001 39.6209 60.5918 39.729 60.8487 39.729Z" fill="#2A2825"/>
<path d="M122.983 39.729H125.938C126.177 39.729 126.306 39.6209 126.306 39.3679V35.4698C126.306 35.127 126.342 34.8924 126.507 34.6034L130.014 28.2508C130.105 28.1065 130.142 27.9981 130.142 27.8898C130.142 27.7455 130.032 27.6915 129.903 27.6915H127.499C127.26 27.6915 127.15 27.7455 127.04 27.9623L124.966 32.0226C124.892 32.1668 124.837 32.2033 124.764 32.2033C124.654 32.2033 124.617 32.1493 124.544 32.0226L122.506 27.9623C122.396 27.7637 122.286 27.6915 122.084 27.6915H118.89C118.707 27.6915 118.633 27.7817 118.633 27.8898C118.633 27.9802 118.67 28.0883 118.78 28.2869L122.414 34.7661C122.616 35.1447 122.635 35.2351 122.635 35.7042V39.3679C122.635 39.5666 122.726 39.729 122.983 39.729Z" fill="#2A2825"/>
<path d="M74.9443 29.9473C76.6149 29.9473 77.4961 31.1205 77.4961 33.7552C77.4961 36.2639 76.6149 37.4728 74.9261 37.4728C73.2193 37.4728 72.3931 36.2457 72.3931 33.7734C72.3931 31.0842 73.3107 29.9473 74.9443 29.9473ZM74.9443 40C79.2578 40 81.2401 37.3465 81.2401 33.7373C81.2401 29.9293 79.0927 27.4205 74.9443 27.4205C70.6127 27.4205 68.6488 30.1097 68.6488 33.7734C68.6488 37.527 70.7962 40 74.9443 40Z" fill="#2A2825"/>
<path d="M94.8773 27.6915C94.6022 27.6915 94.529 27.8175 94.529 28.0704V35.6144C94.529 35.7225 94.5104 35.7945 94.4001 35.7945C94.3269 35.7945 94.2717 35.7585 94.2352 35.6504L91.2247 27.9802C91.1329 27.7994 91.023 27.6915 90.6925 27.6915H86.5259C86.2872 27.6915 86.1958 27.8175 86.1958 28.0522V39.4222C86.1958 39.6388 86.3057 39.729 86.5259 39.729H88.655C88.9305 39.729 89.0037 39.6388 89.0037 39.4222V31.9324C89.0037 31.8061 89.0407 31.752 89.1325 31.752C89.2243 31.752 89.2424 31.7883 89.2973 31.9146L92.2344 38.971C92.5095 39.6388 92.6751 39.729 93.2622 39.729H96.8964C97.2454 39.729 97.337 39.6209 97.337 39.2599V28.0704C97.337 27.7994 97.2269 27.6915 96.9884 27.6915H94.8773Z" fill="#2A2825"/>
<path d="M108.297 30.236H112.39C112.629 30.236 112.757 30.1638 112.757 29.911V28.0161C112.757 27.7817 112.629 27.6915 112.39 27.6915H104.809C104.571 27.6915 104.479 27.7817 104.479 28.034V39.4222C104.479 39.6209 104.571 39.729 104.809 39.729H112.794C113.051 39.729 113.106 39.6388 113.106 39.4222V37.5091C113.106 37.2926 113.051 37.1843 112.794 37.1843H108.334C108.187 37.1843 108.114 37.1122 108.114 36.9317V35.0366C108.114 34.8924 108.187 34.8199 108.315 34.8199H111.491C111.711 34.8199 111.821 34.7297 111.821 34.5132V32.6184C111.821 32.4019 111.711 32.3113 111.491 32.3113H108.315C108.187 32.3113 108.114 32.2392 108.114 32.1129V30.4529C108.114 30.3083 108.187 30.236 108.297 30.236Z" fill="#2A2825"/>
<path d="M129.366 39.7231C129.249 39.7231 129.146 39.7087 129.059 39.6797C128.973 39.6506 128.901 39.6181 128.844 39.5819C128.778 39.5404 128.721 39.4922 128.676 39.4379L128.883 39.2338C128.912 39.2738 128.951 39.31 128.999 39.3425C129.039 39.3699 129.09 39.3948 129.151 39.4174C129.212 39.4401 129.284 39.4512 129.366 39.4512C129.429 39.4512 129.484 39.4436 129.532 39.4285C129.58 39.4131 129.621 39.3921 129.654 39.3659C129.687 39.3395 129.712 39.3091 129.728 39.2748C129.745 39.2404 129.753 39.204 129.753 39.1662C129.753 39.1136 129.739 39.0704 129.709 39.0371C129.68 39.0034 129.641 38.9748 129.593 38.9512C129.545 38.928 129.491 38.9078 129.43 38.8915C129.369 38.8754 129.307 38.8577 129.242 38.8388C129.178 38.8195 129.115 38.797 129.054 38.7704C128.993 38.7444 128.939 38.7108 128.891 38.67C128.843 38.6292 128.804 38.5789 128.775 38.5192C128.745 38.4594 128.731 38.3851 128.731 38.2961C128.731 38.2257 128.746 38.1582 128.776 38.094C128.807 38.0294 128.85 37.9729 128.908 37.9241C128.965 37.875 129.034 37.8369 129.116 37.8084C129.198 37.7805 129.291 37.7664 129.394 37.7664C129.494 37.7664 129.581 37.7791 129.657 37.8046C129.732 37.8297 129.796 37.858 129.848 37.8886C129.908 37.925 129.96 37.9658 130.002 38.011L129.795 38.2149C129.765 38.1821 129.731 38.1533 129.693 38.1278C129.66 38.106 129.617 38.0858 129.567 38.0666C129.516 38.0477 129.459 38.0381 129.394 38.0381C129.276 38.0381 129.187 38.064 129.126 38.1155C129.065 38.1675 129.035 38.2274 129.035 38.2961C129.035 38.3488 129.05 38.3919 129.079 38.4255C129.109 38.459 129.147 38.4875 129.195 38.5111C129.243 38.5347 129.297 38.5544 129.358 38.5707C129.419 38.5871 129.482 38.6049 129.546 38.6238C129.611 38.6427 129.673 38.6656 129.734 38.6918C129.795 38.7179 129.849 38.7515 129.897 38.7925C129.945 38.8331 129.984 38.8834 130.013 38.9431C130.043 39.0029 130.057 39.0772 130.057 39.1662C130.057 39.2404 130.041 39.3114 130.009 39.3794C129.977 39.4474 129.931 39.5068 129.872 39.5574C129.813 39.6081 129.741 39.6485 129.655 39.6783C129.57 39.7082 129.473 39.7231 129.366 39.7231Z" fill="#2A2825"/>
<path d="M130.333 37.7938H130.61L131.342 38.7175L132.075 37.7938H132.351V39.6959H132.047V38.2963L131.342 39.1797L130.637 38.2963V39.6959H130.333V37.7938Z" fill="#2A2825"/>
</svg>
